<?xml version="1.0" encoding="UTF-8"?>
<svg version="1.1" xmlns="http://www.w3.org/2000/svg" width="492" height="507">
<path d="M0 0 C0.82514099 0.00087616 1.65028198 0.00175232 2.50042725 0.00265503 C15.07268611 0.04674841 27.04358403 0.58370482 39.125 4.375 C40.332771 4.75301758 40.332771 4.75301758 41.56494141 5.13867188 C54.45999748 9.31111679 66.95561907 14.5685623 77.5390625 23.2109375 C79.2388234 24.58317205 79.2388234 24.58317205 82.125 25.375 C82.125 26.035 82.125 26.695 82.125 27.375 C82.805625 27.58125 83.48625 27.7875 84.1875 28 C88.04139375 29.80395027 91.20287764 32.2760345 94.125 35.375 C94.125 36.035 94.125 36.695 94.125 37.375 C94.7025 37.6225 95.28 37.87 95.875 38.125 C98.45439979 39.55799988 100.18621592 41.15924676 102.125 43.375 C102.125 44.035 102.125 44.695 102.125 45.375 C102.785 45.375 103.445 45.375 104.125 45.375 C119.125 61.58189655 119.125 61.58189655 119.125 68.375 C119.785 68.375 120.445 68.375 121.125 68.375 C135.66681683 92.99274574 135.66681683 92.99274574 135.125 100.375 C133.85527344 100.34019531 132.58554687 100.30539063 131.27734375 100.26953125 C114.91719378 99.95838044 97.75644833 100.51219964 85.125 112.375 C76.70789115 122.91032168 75.44328586 133.92888542 76.375 147.125 C77.03453568 152.73105327 78.4520393 157.99458827 80.125 163.375 C80.42921875 164.42558594 80.7334375 165.47617188 81.046875 166.55859375 C85.60233129 181.36382669 92.26740556 195.75262446 99.90576172 209.21240234 C102.00145962 212.92960139 103.96072586 216.71861982 105.9375 220.5 C108.44589124 225.29503577 110.95664643 230.08659335 113.55078125 234.8359375 C113.92291748 235.52026855 114.29505371 236.20459961 114.6784668 236.90966797 C115.3766107 238.19015519 116.07966618 239.46798055 116.78833008 240.74267578 C118.2987385 243.52138709 119.125 245.15587575 119.125 248.375 C119.785 248.375 120.445 248.375 121.125 248.375 C122.4921875 250.16796875 122.4921875 250.16796875 124 252.5625 C125.74564441 255.28365158 127.46257265 257.79252407 129.5 260.3125 C131.125 262.375 131.125 262.375 131.125 264.375 C131.785 264.375 132.445 264.375 133.125 264.375 C132.125 267.375 132.125 267.375 130.19921875 268.5078125 C129.41160156 268.83523438 128.62398437 269.16265625 127.8125 269.5 C126.64267578 269.99886719 126.64267578 269.99886719 125.44921875 270.5078125 C123.125 271.375 123.125 271.375 120.8984375 271.8515625 C120.31320312 272.02429688 119.72796875 272.19703125 119.125 272.375 C117.98954438 274.67034258 117.98954438 274.67034258 117.125 277.375 C116.37959961 278.53237671 116.37959961 278.53237671 115.61914062 279.71313477 C114.01899982 282.56384313 113.60247043 284.4841294 113.28125 287.71484375 C113.17103516 288.76269043 113.06082031 289.81053711 112.94726562 290.89013672 C112.84091797 292.0195166 112.73457031 293.14889648 112.625 294.3125 C112.50318359 295.49602051 112.38136719 296.67954102 112.25585938 297.89892578 C111.86538503 301.72307134 111.49311271 305.54864095 111.125 309.375 C110.62744153 314.50024093 110.12768863 319.62525963 109.625 324.75 C109.439375 326.65108521 109.439375 326.65108521 109.25 328.59057617 C108.44788916 336.6351839 107.46291322 344.62410513 106.24560547 352.61572266 C105.38253927 358.33868677 104.70876984 364.06321553 104.10205078 369.81884766 C99.18037915 416.03887344 99.18037915 416.03887344 87.125 430.375 C86.465 430.375 85.805 430.375 85.125 430.375 C85.125 431.035 85.125 431.695 85.125 432.375 C71.89286989 443.76933426 51.89472599 448.27646454 34.78515625 447.75390625 C25.48193967 446.79081979 17.67098775 443.09390063 11.125 436.375 C8.49698267 432.85734256 6.2623408 429.20707151 4.125 425.375 C3.526875 424.323125 2.92875 423.27125 2.3125 422.1875 C-3.39153864 408.67793479 -3.28422851 392.31247466 -4 377.8125 C-4.0650322 376.56362503 -4.0650322 376.56362503 -4.13137817 375.28952026 C-4.75866024 362.87170414 -4.93593743 350.47018164 -4.89453125 338.0390625 C-4.89149113 336.98247909 -4.89149113 336.98247909 -4.88838959 335.90455055 C-4.86644572 328.81429554 -4.82642982 321.72471234 -4.73732853 314.63496399 C-4.71372436 312.60755245 -4.69667319 310.58019856 -4.68205261 308.55270386 C-4.66285055 306.0569878 -4.63170623 303.56132234 -4.58613586 301.06594849 C-4.53351422 292.04758676 -6.299139 284.62698692 -9.875 276.375 C-10.535 276.375 -11.195 276.375 -11.875 276.375 C-11.875 275.715 -11.875 275.055 -11.875 274.375 C-12.535 274.375 -13.195 274.375 -13.875 274.375 C-13.875 273.715 -13.875 273.055 -13.875 272.375 C-14.596875 272.08625 -15.31875 271.7975 -16.0625 271.5 C-17.78331685 270.81167326 -19.49480777 270.09859924 -21.1875 269.34375 C-24.09451239 268.29587344 -26.61166904 267.97234923 -29.6875 267.75 C-30.66332031 267.67523438 -31.63914062 267.60046875 -32.64453125 267.5234375 C-33.38058594 267.47445313 -34.11664063 267.42546875 -34.875 267.375 C-34.42223906 262.93794278 -33.55503131 259.33835325 -31.6796875 255.29296875 C-30.79418321 253.18237357 -30.21692699 251.08559154 -29.625 248.875 C-27.31529104 240.87045306 -23.35454206 233.39043734 -19.671875 225.94140625 C-6.70652437 198.72445988 -9.53348507 166.12364132 -14.875 137.375 C-15.03548828 136.24964844 -15.03548828 136.24964844 -15.19921875 135.1015625 C-16.26413715 128.75785506 -19.25309474 123.61322244 -22.4140625 118.09765625 C-23.875 115.375 -23.875 115.375 -23.875 113.375 C-24.535 113.375 -25.195 113.375 -25.875 113.375 C-25.875 112.715 -25.875 112.055 -25.875 111.375 C-26.44347656 111.09785156 -27.01195312 110.82070312 -27.59765625 110.53515625 C-30.65610553 108.97707831 -33.59783187 107.23135767 -36.55859375 105.49609375 C-49.06082863 99.44526506 -67.39986457 103.4248455 -79.8125 107.6875 C-85.97723746 109.95623142 -91.95344156 112.53506891 -97.875 115.375 C-98.39164417 106.83602005 -97.67473672 98.99536946 -96.0625 90.625 C-95.89717773 89.76302002 -95.73185547 88.90104004 -95.56152344 88.01293945 C-94.34643962 82.01475025 -92.7081394 76.21080345 -90.875 70.375 C-90.41867188 68.83585937 -90.41867188 68.83585937 -89.953125 67.265625 C-86.2192133 55.35937825 -80.54184894 43.28728491 -72.875 33.375 C-72.215 33.375 -71.555 33.375 -70.875 33.375 C-70.606875 32.611875 -70.33875 31.84875 -70.0625 31.0625 C-68.92365495 28.48511382 -68.06083329 27.10545136 -65.875 25.375 C-65.215 25.375 -64.555 25.375 -63.875 25.375 C-63.64039063 24.79621094 -63.40578125 24.21742187 -63.1640625 23.62109375 C-60.59791848 19.1497822 -55.95395216 16.40386477 -51.875 13.375 C-51.25625 12.90707031 -50.6375 12.43914063 -50 11.95703125 C-45.64888059 8.95592434 -40.90945182 7.06977995 -36 5.1875 C-35.35208496 4.93726074 -34.70416992 4.68702148 -34.03662109 4.42919922 C-22.83108165 0.31373042 -11.81236856 -0.03045562 0 0 Z " fill="#346791" transform="translate(255.875,32.625)"/>
<path d="M0 0 C1.07749512 0.05365723 1.07749512 0.05365723 2.17675781 0.10839844 C14.01650833 0.76165894 25.51174208 2.49130808 37.125 4.875 C38.91925415 5.24165771 38.91925415 5.24165771 40.74975586 5.61572266 C48.3634722 7.24666558 55.6699965 9.37580181 63 12 C61.97472187 16.5156486 60.16001072 18.60876898 57 22 C56.34 22 55.68 22 55 22 C54.62875 22.7734375 54.62875 22.7734375 54.25 23.5625 C52.60418384 26.77184151 50.8023904 29.87585664 49 33 C48.34 33 47.68 33 47 33 C46.59007812 34.31871094 46.59007812 34.31871094 46.171875 35.6640625 C45.08152122 38.76793625 43.79435838 41.47725228 42.25 44.375 C35.53491003 57.65813418 31.41590035 71.56476269 28 86 C27.83870605 86.67450195 27.67741211 87.34900391 27.51123047 88.04394531 C24.0990995 102.61267709 23.91504963 117.01061204 23.97265625 131.89453125 C23.97522556 132.57160818 23.97779488 133.24868511 23.98044205 133.94627953 C24.00693769 140.33153564 24.04554472 146.71669544 24.09594727 153.10180664 C24.31918421 182.41915893 24.31918421 182.41915893 22.4597168 196.40161133 C20.15680603 214.42742218 24.45376427 232.93472602 34.9921875 247.8125 C37.82383813 251.40281928 40.68567776 254.78895967 44.0625 257.875 C46 260 46 260 46.125 261.9375 C44.43361496 265.03837257 42.41453957 267.40878681 40 270 C39.34 270 38.68 270 38 270 C38 270.66 38 271.32 38 272 C37.34 272 36.68 272 36 272 C35.5978125 272.86625 35.5978125 272.86625 35.1875 273.75 C33.97070811 276.05550043 32.69666121 278.02056192 31 280 C30.34 280 29.68 280 29 280 C28.5978125 280.86625 28.5978125 280.86625 28.1875 281.75 C26.97070811 284.05550043 25.69666121 286.02056192 24 288 C23.34 288 22.68 288 22 288 C21.5978125 288.86625 21.5978125 288.86625 21.1875 289.75 C19.97070811 292.05550043 18.69666121 294.02056192 17 296 C16.34 296 15.68 296 15 296 C14.73316406 296.56976563 14.46632813 297.13953125 14.19140625 297.7265625 C9.77669937 306.15069169 3.43926511 311.78036745 -5 316 C-11.93375805 316.77323444 -16.2996815 315.99022295 -22 312 C-23.2065625 311.195625 -23.2065625 311.195625 -24.4375 310.375 C-25.2109375 309.694375 -25.2109375 309.694375 -26 309 C-26 308.34 -26 307.68 -26 307 C-26.66 307 -27.32 307 -28 307 C-28 306.34 -28 305.68 -28 305 C-28.66 305 -29.32 305 -30 305 C-32.93630939 301.192923 -35.43572384 297.06481692 -38 293 C-38.57105469 292.11054688 -39.14210937 291.22109375 -39.73046875 290.3046875 C-48.33518555 276.28370004 -54.76419064 260.70391855 -60.21972656 245.21289062 C-61.11124915 242.6844924 -62.0212455 240.16299177 -62.9296875 237.640625 C-69.33972776 219.68642197 -74.48868778 201.51263709 -79 183 C-79.26554687 181.98035156 -79.53109375 180.96070313 -79.8046875 179.91015625 C-81.37078482 173.89601964 -82.63112617 167.87286894 -83.73461914 161.75683594 C-84.6748709 156.59415173 -85.73968859 151.46523267 -86.84155273 146.3347168 C-87.93107104 141.23050329 -88.97181451 136.11687631 -90 131 C-90.17096191 130.1651709 -90.34192383 129.3303418 -90.51806641 128.47021484 C-97.34837369 94.12008173 -94.70556515 56.55834772 -75 27 C-74.34 27 -73.68 27 -73 27 C-72.75507812 26.42765625 -72.51015625 25.8553125 -72.2578125 25.265625 C-65.80969847 13.65100967 -50.25141693 7.44876782 -38.1875 3.625 C-25.92809268 0.45857022 -12.63159757 -0.67721852 0 0 Z " fill="#346791" transform="translate(121,33)"/>
<path d="M0 0 C0.92037048 -0.01252808 1.84074097 -0.02505615 2.78900146 -0.03796387 C22.47253885 -0.25412541 41.21455867 -0.33617191 60.25390625 5.2734375 C61.07729492 5.50337402 61.90068359 5.73331055 62.74902344 5.97021484 C93.75219275 14.75631156 125.65587218 35.41077871 141.7421875 63.91015625 C145.28053628 71.05991706 146.91467367 78.44407781 148.25390625 86.2734375 C148.38667969 87.04171875 148.51945312 87.81 148.65625 88.6015625 C156.79253752 147.00450303 128.36763035 213.33200864 102.94140625 264.2734375 C102.60896912 264.94048706 102.27653198 265.60753662 101.934021 266.2947998 C97.67335856 274.81295748 93.16305689 283.10704403 88.25390625 291.2734375 C89.96363762 290.95165619 91.67336235 290.6298396 93.38305664 290.30786133 C94.85194959 290.0324131 96.32119635 289.75884565 97.79077148 289.48706055 C100.94926609 288.90200037 104.09818007 288.30706946 107.23828125 287.62890625 C119.468274 285.05319565 131.16520624 284.73347068 142.0546875 291.37109375 C146.32290644 294.49547238 148.95104727 298.20839022 150.25390625 303.2734375 C151.14766775 310.72272864 151.88390146 319.89981343 147.703125 326.45703125 C147.22488281 327.05644531 146.74664062 327.65585937 146.25390625 328.2734375 C145.62097656 329.06878906 144.98804688 329.86414063 144.3359375 330.68359375 C126.25531658 351.90032237 99.88162911 362.32017711 72.62841797 365.10791016 C68.1510616 365.42002692 63.67717148 365.37651854 59.19140625 365.3359375 C58.23041016 365.33142578 57.26941406 365.32691406 56.27929688 365.32226562 C53.93743203 365.31061456 51.59570444 365.29425775 49.25390625 365.2734375 C49.21426758 366.15676758 49.17462891 367.04009766 49.13378906 367.95019531 C45.9480908 436.01149456 45.9480908 436.01149456 32.25390625 461.2734375 C31.83882813 462.14226562 31.42375 463.01109375 30.99609375 463.90625 C22.15933692 481.63025942 6.81671423 494.68258572 -11.98242188 501.02832031 C-17.19004379 502.63317127 -22.4493453 503.99867153 -27.74609375 505.2734375 C-28.44943848 505.46035156 -29.1527832 505.64726562 -29.87744141 505.83984375 C-46.36992263 509.9823822 -64.71609293 508.77101762 -79.43359375 500.1484375 C-89.07156209 493.54516473 -95.8915079 485.88646602 -100.74609375 475.2734375 C-101.18566406 474.314375 -101.62523437 473.3553125 -102.078125 472.3671875 C-114.90833378 442.90809785 -114.86649485 410.87463684 -115.74609375 379.2734375 C-116.48432373 379.54768555 -117.22255371 379.82193359 -117.9831543 380.10449219 C-119.44942261 380.64444824 -119.44942261 380.64444824 -120.9453125 381.1953125 C-121.91041748 381.55206055 -122.87552246 381.90880859 -123.86987305 382.27636719 C-144.09682071 389.28823836 -169.63706219 386.1624085 -188.74609375 377.2734375 C-191.81758447 375.26558573 -194.69006416 373.158463 -197.5390625 370.84765625 C-199.70133314 368.98309108 -199.70133314 368.98309108 -202.74609375 369.2734375 C-204.30024731 370.15459979 -205.81730572 371.10211827 -207.30859375 372.0859375 C-217.94362262 378.55876802 -229.62090099 380.21398482 -241.83203125 377.6171875 C-260.05464675 371.56038693 -271.65750086 357.81621455 -281.74609375 342.2734375 C-282.14199707 341.66419434 -282.53790039 341.05495117 -282.94580078 340.42724609 C-293.15526973 324.46851588 -301.15404064 306.78162892 -306.6484375 288.65234375 C-307.54007912 285.90761065 -308.52772963 283.30257657 -309.62109375 280.63671875 C-323.66235831 245.93756415 -331.40974739 207.56279119 -338.09423828 170.84033203 C-338.49232341 168.66204598 -338.89980022 166.48541574 -339.32373047 164.31201172 C-343.84327858 141.05077219 -343.99371045 114.41089346 -338.74609375 91.2734375 C-338.58512207 90.52964844 -338.42415039 89.78585938 -338.25830078 89.01953125 C-334.40357198 71.74916128 -327.20502454 55.81768722 -315.74609375 42.2734375 C-315.12347656 41.4896875 -314.50085938 40.7059375 -313.859375 39.8984375 C-296.4718881 18.9022269 -269.22071919 9.57770678 -242.890625 6.7109375 C-212.79781901 3.88768308 -181.18216793 8.71905636 -152.72973633 18.60375977 C-147.07992949 19.87185732 -142.93588888 18.06719964 -137.93359375 15.5234375 C-132.79104791 13.08409991 -127.70140677 11.14376627 -122.24609375 9.5234375 C-121.59535889 9.32524414 -120.94462402 9.12705078 -120.27416992 8.92285156 C-108.48728248 5.55064021 -96.66988015 4.93868461 -84.49609375 5.0234375 C-83.40941406 5.02559769 -83.40941406 5.02559769 -82.30078125 5.02780151 C-72.83066891 5.04989252 -63.5413186 5.36371228 -54.18359375 6.93359375 C-45.88118271 7.7544003 -37.75388909 5.53551072 -29.68359375 3.7734375 C-27.61005403 3.32238784 -25.53584463 2.87440444 -23.4609375 2.4296875 C-22.554646 2.23181641 -21.64835449 2.03394531 -20.71459961 1.83007812 C-13.78514612 0.53069874 -7.03333446 0.08758251 0 0 Z M-43.72241211 22.6652832 C-47.45825586 23.78797433 -51.22746163 24.03275356 -54.74609375 22.2734375 C-64.12091015 20.24606735 -73.42433806 19.93006713 -82.96630859 19.95776367 C-85.24364736 19.96093409 -87.51969447 19.93732434 -89.796875 19.91210938 C-98.84386167 19.87276506 -106.99459848 20.73957795 -115.74609375 23.2734375 C-116.83567383 23.57157349 -116.83567383 23.57157349 -117.94726562 23.87573242 C-126.3217767 26.25780117 -133.37539375 29.42813203 -140.74609375 34.015625 C-147.51870746 36.85518439 -155.44782318 33.0031039 -162.18359375 31.0234375 C-178.95604446 26.22493857 -196.2031879 21.49856857 -213.74609375 21.2734375 C-214.71369629 21.25974121 -215.68129883 21.24604492 -216.67822266 21.23193359 C-238.37006482 20.73094119 -238.37006482 20.73094119 -259.62109375 24.4609375 C-260.39066406 24.68015869 -261.16023438 24.89937988 -261.953125 25.12524414 C-272.35216069 28.20407677 -283.01721031 32.73170093 -291.74609375 39.2734375 C-291.74609375 39.9334375 -291.74609375 40.5934375 -291.74609375 41.2734375 C-292.73609375 41.2734375 -293.72609375 41.2734375 -294.74609375 41.2734375 C-294.74609375 41.9334375 -294.74609375 42.5934375 -294.74609375 43.2734375 C-295.40609375 43.2734375 -296.06609375 43.2734375 -296.74609375 43.2734375 C-296.74609375 43.9334375 -296.74609375 44.5934375 -296.74609375 45.2734375 C-297.40609375 45.2734375 -298.06609375 45.2734375 -298.74609375 45.2734375 C-298.74609375 45.9334375 -298.74609375 46.5934375 -298.74609375 47.2734375 C-299.40609375 47.2734375 -300.06609375 47.2734375 -300.74609375 47.2734375 C-321.03198323 69.8741069 -326.56961672 98.57159729 -326.24609375 128.0234375 C-326.23989014 129.03556305 -326.23368652 130.0476886 -326.22729492 131.09048462 C-326.1188563 146.20322341 -325.22265524 160.52957441 -321.74609375 175.2734375 C-321.27501566 177.37812656 -320.81055695 179.48422508 -320.34606934 181.59037781 C-318.38942707 190.45100188 -316.3417609 199.28862143 -314.25323486 208.11895752 C-313.7268127 210.35534888 -313.20718329 212.59323724 -312.68896484 214.83154297 C-312.42660034 215.95998375 -312.42660034 215.95998375 -312.15893555 217.11122131 C-311.82888276 218.53112774 -311.50030161 219.95137751 -311.17358398 221.37205505 C-309.72321497 227.58895739 -307.94306113 233.69685547 -306.078125 239.80078125 C-305.15392842 242.86493703 -304.28212572 245.93819681 -303.4453125 249.02734375 C-296.36572532 275.00787696 -287.31722468 300.91508346 -273.74609375 324.2734375 C-273.19308594 325.26601563 -272.64007813 326.25859375 -272.0703125 327.28125 C-268.42814813 333.72570047 -264.4799114 339.58628158 -259.74609375 345.2734375 C-259.23046875 345.91152344 -258.71484375 346.54960937 -258.18359375 347.20703125 C-251.466478 355.34103861 -244.34167031 361.00412466 -233.68359375 362.1484375 C-226.19670052 362.54347458 -220.44776474 360.28235101 -213.74609375 357.2734375 C-213.74609375 356.6134375 -213.74609375 355.9534375 -213.74609375 355.2734375 C-212.91851562 354.933125 -212.91851562 354.933125 -212.07421875 354.5859375 C-209.05916958 352.88617824 -206.93379006 350.72538934 -204.49609375 348.2734375 C-203.6040625 347.3865625 -202.71203125 346.4996875 -201.79296875 345.5859375 C-199.52516302 343.53854647 -199.52516302 343.53854647 -199.74609375 341.2734375 C-199.08609375 341.2734375 -198.42609375 341.2734375 -197.74609375 341.2734375 C-197.08609375 339.6234375 -196.42609375 337.9734375 -195.74609375 336.2734375 C-195.08609375 336.2734375 -194.42609375 336.2734375 -193.74609375 336.2734375 C-193.74609375 335.6134375 -193.74609375 334.9534375 -193.74609375 334.2734375 C-193.08609375 334.2734375 -192.42609375 334.2734375 -191.74609375 334.2734375 C-189.70153316 332.10079095 -189.70153316 332.10079095 -187.62109375 329.3984375 C-186.89664063 328.49351562 -186.1721875 327.58859375 -185.42578125 326.65625 C-183.55404141 324.48687939 -183.55404141 324.48687939 -183.74609375 322.2734375 C-183.08609375 322.2734375 -182.42609375 322.2734375 -181.74609375 322.2734375 C-181.74609375 321.6134375 -181.74609375 320.9534375 -181.74609375 320.2734375 C-181.08609375 320.2734375 -180.42609375 320.2734375 -179.74609375 320.2734375 C-179.74609375 319.6134375 -179.74609375 318.9534375 -179.74609375 318.2734375 C-179.08609375 318.2734375 -178.42609375 318.2734375 -177.74609375 318.2734375 C-176.14129096 316.72567752 -176.14129096 316.72567752 -174.49609375 314.7109375 C-173.88121094 313.98777344 -173.26632813 313.26460938 -172.6328125 312.51953125 C-172.01019531 311.77832031 -171.38757813 311.03710938 -170.74609375 310.2734375 C-169.60135912 308.93916075 -168.45562647 307.60573917 -167.30859375 306.2734375 C-166.46296875 305.2834375 -165.61734375 304.2934375 -164.74609375 303.2734375 C-161.05651501 303.91510337 -157.74976249 304.96437445 -154.24609375 306.2734375 C-147.7763363 308.49439901 -141.55071257 309.05393367 -134.74609375 309.2734375 C-134.74609375 310.5934375 -134.74609375 311.9134375 -134.74609375 313.2734375 C-135.40609375 313.2734375 -136.06609375 313.2734375 -136.74609375 313.2734375 C-139.1442968 315.91028497 -139.1442968 315.91028497 -139.74609375 319.2734375 C-140.40609375 319.2734375 -141.06609375 319.2734375 -141.74609375 319.2734375 C-142.36484375 320.1603125 -142.98359375 321.0471875 -143.62109375 321.9609375 C-150.36120085 330.14123842 -163.20450774 331.48723604 -173.00366211 333.48657227 C-178.03926796 334.53511973 -182.2832451 335.69125417 -186.74609375 338.2734375 C-186.74609375 338.9334375 -186.74609375 339.5934375 -186.74609375 340.2734375 C-187.40609375 340.2734375 -188.06609375 340.2734375 -188.74609375 340.2734375 C-188.74609375 340.9334375 -188.74609375 341.5934375 -188.74609375 342.2734375 C-189.40609375 342.2734375 -190.06609375 342.2734375 -190.74609375 342.2734375 C-192.51418117 347.07416558 -192.51418117 347.07416558 -191.99609375 352.0234375 C-190.6922165 354.44180389 -190.6922165 354.44180389 -188.74609375 357.2734375 C-188.08609375 357.2734375 -187.42609375 357.2734375 -186.74609375 357.2734375 C-186.74609375 357.9334375 -186.74609375 358.5934375 -186.74609375 359.2734375 C-174.48731612 369.48908553 -155.04631746 370.30539132 -139.859375 369.03125 C-125.35391273 367.13333905 -114.35672767 360.59627945 -102.74609375 352.2734375 C-102.7618042 354.24860352 -102.7618042 354.24860352 -102.77783203 356.26367188 C-105.65280787 412.69695589 -105.65280787 412.69695589 -91.74609375 466.2734375 C-91.08609375 466.2734375 -90.42609375 466.2734375 -89.74609375 466.2734375 C-89.6378125 466.85222656 -89.52953125 467.43101562 -89.41796875 468.02734375 C-87.64421328 473.95704955 -82.29851607 479.22683988 -77.74609375 483.2734375 C-77.08609375 483.2734375 -76.42609375 483.2734375 -75.74609375 483.2734375 C-75.74609375 483.9334375 -75.74609375 484.5934375 -75.74609375 485.2734375 C-55.77231598 495.22901952 -37.6014666 494.92565063 -16.546875 487.953125 C1.74565207 481.34633801 12.94246034 470.61515708 21.25390625 453.2734375 C23.24402797 448.90240651 24.22191172 444.45395502 25.19140625 439.7734375 C25.36470459 438.938125 25.53800293 438.1028125 25.71655273 437.2421875 C28.77439681 422.08407801 30.47303801 406.74995159 32.12475586 391.38647461 C33.02242671 383.1055938 34.09894483 374.86211043 35.26293945 366.61499023 C36.16098327 360.17729379 36.85679964 353.76407654 37.25390625 347.2734375 C38.22070312 347.4178125 39.1875 347.5621875 40.18359375 347.7109375 C67.98585062 351.67482363 96.36277527 347.62623474 119.50390625 330.9609375 C121.09552035 329.74251242 122.6798783 328.514498 124.25390625 327.2734375 C125.011875 326.74363281 125.76984375 326.21382813 126.55078125 325.66796875 C127.1128125 325.20777344 127.67484375 324.74757813 128.25390625 324.2734375 C128.25390625 323.6134375 128.25390625 322.9534375 128.25390625 322.2734375 C128.91390625 322.2734375 129.57390625 322.2734375 130.25390625 322.2734375 C133.66392398 318.03674881 134.95282179 314.69295785 135.25390625 309.2734375 C134.9073133 306.95185685 134.9073133 306.95185685 134.25390625 305.2734375 C133.59390625 305.2734375 132.93390625 305.2734375 132.25390625 305.2734375 C132.25390625 304.6134375 132.25390625 303.9534375 132.25390625 303.2734375 C124.95675 299.01393466 115.99835732 301.24646302 108.12890625 302.7734375 C100.3325557 304.23450865 92.67985275 304.60805051 84.75390625 304.6484375 C83.12557861 304.66874023 83.12557861 304.66874023 81.46435547 304.68945312 C74.58172285 304.65139833 68.71669598 303.65094981 62.25390625 301.2734375 C62.25390625 300.6134375 62.25390625 299.9534375 62.25390625 299.2734375 C62.91390625 299.2734375 63.57390625 299.2734375 64.25390625 299.2734375 C64.52203125 298.77457031 64.79015625 298.27570313 65.06640625 297.76171875 C67.638423 293.04917491 70.35411611 288.45661762 73.19140625 283.8984375 C76.14943433 279.12136037 78.96903602 274.31153161 81.60961914 269.35229492 C82.74573131 267.22497338 83.89198458 265.10304783 85.04638672 262.9855957 C89.87672754 254.09652238 94.25408416 245.07145202 98.37890625 235.8359375 C98.83512863 234.8198793 98.83512863 234.8198793 99.30056763 233.78329468 C103.6593163 224.06631262 107.77757524 214.34534516 111.25390625 204.2734375 C111.83962311 202.63877651 112.42697456 201.00470064 113.015625 199.37109375 C118.63383123 183.69141874 122.92812849 167.87785629 126.69433594 151.66308594 C127.17361764 149.6163105 127.66916625 147.57335595 128.16796875 145.53125 C131.33047506 132.46594615 132.60727459 119.83618773 132.56958008 106.44067383 C132.56639532 104.07782805 132.59007594 101.71621019 132.61523438 99.35351562 C132.70362177 77.91774796 124.78336783 65.04338518 110.19140625 49.9609375 C107.67153813 47.04843301 107.67153813 47.04843301 105.25390625 47.2734375 C105.25390625 46.6134375 105.25390625 45.9534375 105.25390625 45.2734375 C104.59390625 45.2734375 103.93390625 45.2734375 103.25390625 45.2734375 C103.25390625 44.6134375 103.25390625 43.9534375 103.25390625 43.2734375 C102.26390625 43.2734375 101.27390625 43.2734375 100.25390625 43.2734375 C100.25390625 42.6134375 100.25390625 41.9534375 100.25390625 41.2734375 C61.58811153 11.12580922 1.59470204 6.1510246 -43.72241211 22.6652832 Z " fill="#0E0E0E" transform="translate(341.74609375,-0.2734375)"/>
<path d="M0 0 C0 0.66 0 1.32 0 2 C0.99 2.309375 0.99 2.309375 2 2.625 C6.07180186 4.49124252 9.68796998 6.97561527 13 10 C13 10.66 13 11.32 13 12 C13.5775 12.2475 14.155 12.495 14.75 12.75 C17.32939979 14.18299988 19.06121592 15.78424676 21 18 C21 18.66 21 19.32 21 20 C21.66 20 22.32 20 23 20 C34.82388642 33.64732915 34.80404647 49.8386332 34 67 C30.51013827 111.86653487 14.79851656 155.17782668 -4.4375 195.5 C-5.11522461 196.93279297 -5.11522461 196.93279297 -5.80664062 198.39453125 C-10.23987484 207.68860241 -15.13611213 216.64492126 -20.484375 225.44140625 C-22.66418431 229.12123897 -24.68503148 232.88198085 -26.703125 236.65234375 C-28 239 -28 239 -30 242 C-31.32 241.34 -32.64 240.68 -34 240 C-34.37687318 235.47752181 -34.37687318 235.47752181 -32.68359375 233.33203125 C-26.73610321 225.0938599 -24.05467194 212.97762907 -24 203 C-23.97421875 201.79085937 -23.9484375 200.58171875 -23.921875 199.3359375 C-23.74265056 187.59818214 -24.14832701 175.84364353 -26.0625 164.25 C-28.0952661 150.45512163 -27.23449798 137.34109666 -25 123.625 C-21.15187789 99.84922481 -21.15187789 99.84922481 -27 77 C-27.92731787 74.81699391 -28.84382225 72.62936585 -29.75 70.4375 C-30.17796875 69.44621094 -30.6059375 68.45492187 -31.046875 67.43359375 C-32 65 -32 65 -32 63 C-32.66 63 -33.32 63 -34 63 C-34 61.68 -34 60.36 -34 59 C-34.66 59 -35.32 59 -36 59 C-37.4606285 56.35261084 -38 55.10551666 -38 52 C-38.66 52 -39.32 52 -40 52 C-42.31663844 48.06171464 -44.43358249 44.30764815 -46 40 C-46.66 40 -47.32 40 -48 40 C-49.65625 37.953125 -49.65625 37.953125 -51.5 35.25 C-52.1084375 34.36828125 -52.716875 33.4865625 -53.34375 32.578125 C-54.72685204 30.42518314 -55.91843613 28.31454668 -57 26 C-57.66 26 -58.32 26 -59 26 C-59 25.34 -59 24.68 -59 24 C-59.66 24 -60.32 24 -61 24 C-62.5859375 22.35546875 -62.5859375 22.35546875 -64.375 20.1875 C-66.23566282 17.93749143 -67.86872703 16.09649715 -70.2265625 14.36328125 C-71.10441406 13.68845703 -71.10441406 13.68845703 -72 13 C-72 12.34 -72 11.68 -72 11 C-72.598125 10.71125 -73.19625 10.4225 -73.8125 10.125 C-76 9 -76 9 -79 7 C-79 6.34 -79 5.68 -79 5 C-79.763125 4.71125 -80.52625 4.4225 -81.3125 4.125 C-84 3 -84 3 -87 1 C-87 0.34 -87 -0.32 -87 -1 C-87.84884766 -1.16435547 -87.84884766 -1.16435547 -88.71484375 -1.33203125 C-91.33254327 -2.09720496 -93.25336344 -3.23810786 -95.5625 -4.6875 C-100.93639549 -7.99512867 -106.43971832 -11.01901248 -112 -14 C-89.89633473 -36.10366527 -23.04579508 -13.55460534 0 0 Z " fill="#376892" transform="translate(428,46)"/>
<path d="M0 0 C5.49342603 5.49342603 7.45654212 11.18805292 8.875 18.625 C9.03967773 19.46015137 9.20435547 20.29530273 9.37402344 21.15576172 C15.95557794 55.56882045 13.24101921 86.04951434 -1.83984375 117.69921875 C-5.72884038 126.1128098 -8.77209256 134.8255041 -11.25 143.75 C-25.05372839 144.75188351 -35.72557188 140.69911563 -46.25 131.75 C-56.75986373 121.45276358 -64.4598795 109.52737717 -65.39526367 94.40087891 C-65.42032046 91.7254607 -65.43566492 89.05054408 -65.4375 86.375 C-65.44974609 85.47394531 -65.46199219 84.57289063 -65.47460938 83.64453125 C-65.48574954 78.33438571 -65.06474169 73.3317958 -64.2109375 68.08984375 C-63.22713921 61.26189271 -63.19765695 54.66762576 -63.37109375 47.77734375 C-63.39392929 46.71660645 -63.41676483 45.65586914 -63.44029236 44.56298828 C-63.53984346 40.14522974 -63.64686464 35.72931817 -63.8190918 31.3137207 C-63.94008455 28.05119501 -64.00392257 24.79156461 -64.05859375 21.52734375 C-64.11131943 20.53355209 -64.1640451 19.53976044 -64.21836853 18.51585388 C-64.24021171 15.66222859 -64.15306793 13.46012793 -63.25 10.75 C-60.56622834 8.06247571 -57.63602429 6.42088846 -54.25 4.75 C-52.93739235 4.02102713 -51.62487168 3.2918976 -50.3125 2.5625 C-46.42967827 0.68371529 -42.40720016 -0.50169644 -38.25390625 -1.63671875 C-36.27159136 -2.07200215 -36.27159136 -2.07200215 -35.25 -3.25 C-23.10097385 -6.42636752 -10.64127134 -7.36703401 0 0 Z M-25.25 7.75 C-24.83424938 12.60042388 -22.83340022 14.59319505 -19.25 17.75 C-15.53841602 20.22438932 -12.55236379 20.53653817 -8.25 19.75 C-5.5900412 18.42764955 -3.32281542 16.88289703 -1.25 14.75 C-0.92 13.76 -0.59 12.77 -0.25 11.75 C-5.29443567 6.40092946 -5.29443567 6.40092946 -12.125 4.44921875 C-13.15625 4.44535156 -14.1875 4.44148437 -15.25 4.4375 C-16.28125 4.42074219 -17.3125 4.40398437 -18.375 4.38671875 C-21.56011968 4.78918632 -22.90733538 5.61569737 -25.25 7.75 Z " fill="#366892" transform="translate(220.25,152.25)"/>
<path d="M0 0 C1.08732422 0.00064453 2.17464844 0.00128906 3.29492188 0.00195312 C11.28085667 0.04667834 11.28085667 0.04667834 13.5625 1.1875 C13.90817115 6.99989634 13.59981778 12.45819243 12.49151611 18.18441772 C10.62220374 27.88565243 10.15323982 37.27300475 10.28125 47.13378906 C10.31311344 49.61017586 10.32231145 52.08592606 10.328125 54.5625 C10.3372722 56.15365364 10.34764056 57.74480084 10.359375 59.3359375 C10.36362488 60.06815521 10.36787476 60.80037292 10.37225342 61.55477905 C10.41959655 64.91728253 10.597352 67.96166591 11.5625 71.1875 C12.46149663 79.62253006 12.66138587 88.08569625 12.6875 96.5625 C12.69438843 97.79129883 12.69438843 97.79129883 12.70141602 99.04492188 C12.68195942 106.7466213 12.34059249 114.01107074 9.5 121.25 C9.13777344 122.18972656 8.77554688 123.12945312 8.40234375 124.09765625 C8.12519531 124.78730469 7.84804688 125.47695313 7.5625 126.1875 C6.5725 126.1875 5.5825 126.1875 4.5625 126.1875 C4.06621094 125.17171875 3.56992187 124.1559375 3.05859375 123.109375 C-0.63743891 115.60003348 -4.47919361 108.27864246 -8.76171875 101.08203125 C-16.4375 87.82386364 -16.4375 87.82386364 -16.4375 83.1875 C-17.0975 83.1875 -17.7575 83.1875 -18.4375 83.1875 C-20.02654137 79.58582423 -21.60764306 75.98071282 -23.1875 72.375 C-23.85265625 70.86776367 -23.85265625 70.86776367 -24.53125 69.33007812 C-31.77818382 52.75804563 -40.70197994 31.32467223 -33.9375 13.125 C-33.4425 12.155625 -32.9475 11.18625 -32.4375 10.1875 C-31.7775 10.1875 -31.1175 10.1875 -30.4375 10.1875 C-30.4375 9.5275 -30.4375 8.8675 -30.4375 8.1875 C-29.7775 8.1875 -29.1175 8.1875 -28.4375 8.1875 C-28.4375 7.5275 -28.4375 6.8675 -28.4375 6.1875 C-19.29663446 0.35290497 -10.68916443 -0.12346147 0 0 Z M-21.4375 11.1875 C-22.72859892 13.20457161 -22.72859892 13.20457161 -23.4375 15.1875 C-20.80927103 18.88648892 -18.92040957 21.09410742 -14.4375 22.1875 C-9.57614869 21.82289865 -5.9359772 19.78932045 -2.625 16.25 C-1.10485704 14.00640654 -1.10485704 14.00640654 -1.4375 10.1875 C-8.16150152 7.02326399 -14.91878588 7.69346923 -21.4375 11.1875 Z " fill="#396A93" transform="translate(379.4375,144.8125)"/>
<path d="M0 0 C4.30841423 1.86890905 6.86978131 4.77052775 9.03515625 8.8828125 C10.24025862 13.19959711 10.24213091 16.56282626 9.03515625 20.8828125 C2.29918753 31.6689799 -9.81262722 39.94380256 -22.0078125 43.26171875 C-27.15665118 44.2284115 -32.36520441 44.27344349 -37.58984375 44.3203125 C-38.5435083 44.330625 -39.49717285 44.3409375 -40.47973633 44.3515625 C-49.53599294 44.23932384 -58.05282854 42.37341573 -65.96484375 37.8828125 C-65.96484375 36.8928125 -65.96484375 35.9028125 -65.96484375 34.8828125 C-61.65565381 33.33912403 -57.46940307 32.36152281 -52.96484375 31.5703125 C-46.31147686 30.33398598 -40.22370615 28.37926532 -33.890625 25.96875 C-31.57725286 25.11011522 -29.3694935 24.40937814 -26.96484375 23.8828125 C-26.96484375 23.2228125 -26.96484375 22.5628125 -26.96484375 21.8828125 C-26.30484375 21.8828125 -25.64484375 21.8828125 -24.96484375 21.8828125 C-24.96484375 21.2228125 -24.96484375 20.5628125 -24.96484375 19.8828125 C-23.84955446 18.76752321 -22.72839712 17.65775281 -21.5859375 16.5703125 C-19.56099868 14.46242438 -17.81804924 12.19251325 -16.02734375 9.8828125 C-6.94663836 -1.47231256 -6.94663836 -1.47231256 0 0 Z " fill="#406F96" transform="translate(229.96484375,312.1171875)"/>
<path d="M0 0 C7.06261849 3.42156106 14.38855497 3.38511589 22.07421875 3.34765625 C23.17145264 3.34636719 24.26868652 3.34507812 25.39916992 3.34375 C33.44545313 3.24962078 41.05326439 2.39462169 48.90625 0.69140625 C52.13671875 0.03515625 52.13671875 0.03515625 56.13671875 0.03515625 C55.80671875 1.02515625 55.47671875 2.01515625 55.13671875 3.03515625 C54.47671875 3.03515625 53.81671875 3.03515625 53.13671875 3.03515625 C53.13671875 3.69515625 53.13671875 4.35515625 53.13671875 5.03515625 C51.161189 6.42645922 49.210784 7.68187865 47.13671875 8.91015625 C46.53512939 9.26948242 45.93354004 9.62880859 45.3137207 9.99902344 C43.59283845 11.01918301 41.86496157 12.02751642 40.13671875 13.03515625 C39.44964844 13.45539063 38.76257813 13.875625 38.0546875 14.30859375 C27.80430563 20.09323363 14.69445523 21.71944611 3.13671875 22.03515625 C1.26113281 22.09509766 1.26113281 22.09509766 -0.65234375 22.15625 C-17.06204578 22.43577398 -17.06204578 22.43577398 -23.86328125 19.03515625 C-24.48438278 8.37291338 -24.48438278 8.37291338 -22.23828125 3.53515625 C-14.99375102 -4.09066505 -8.89792821 -5.89459728 0 0 Z " fill="#406F96" transform="translate(403.86328125,313.96484375)"/>
<path d="M0 0 C1.02158203 0.00322266 2.04316406 0.00644531 3.09570312 0.00976562 C4.15080078 0.01814453 5.20589844 0.02652344 6.29296875 0.03515625 C7.36740234 0.03966797 8.44183594 0.04417969 9.54882812 0.04882812 C12.19276558 0.06057896 14.83658827 0.07700838 17.48046875 0.09765625 C17.97546875 1.08765625 17.97546875 1.08765625 18.48046875 2.09765625 C17.49046875 2.09765625 16.50046875 2.09765625 15.48046875 2.09765625 C15.48046875 2.75765625 15.48046875 3.41765625 15.48046875 4.09765625 C16.47046875 4.42765625 17.46046875 4.75765625 18.48046875 5.09765625 C16.48046875 8.09765625 16.48046875 8.09765625 13.98046875 8.84765625 C11.48046875 9.09765625 11.48046875 9.09765625 9.48046875 8.09765625 C2.24217207 7.4542521 -3.8247468 8.32056048 -10.51953125 11.09765625 C-10.51953125 14.86453489 -10.28415808 16.0095593 -8.51953125 19.09765625 C-9.50953125 19.09765625 -10.49953125 19.09765625 -11.51953125 19.09765625 C-11.51953125 18.10765625 -11.51953125 17.11765625 -11.51953125 16.09765625 C-12.17953125 16.09765625 -12.83953125 16.09765625 -13.51953125 16.09765625 C-14.17953125 13.78765625 -14.83953125 11.47765625 -15.51953125 9.09765625 C-16.83953125 9.09765625 -18.15953125 9.09765625 -19.51953125 9.09765625 C-19.51953125 8.43765625 -19.51953125 7.77765625 -19.51953125 7.09765625 C-18.85953125 7.09765625 -18.19953125 7.09765625 -17.51953125 7.09765625 C-17.51953125 6.43765625 -17.51953125 5.77765625 -17.51953125 5.09765625 C-11.50645862 1.44265132 -7.13015782 -0.03983328 0 0 Z " fill="#386890" transform="translate(368.51953125,145.90234375)"/>
<path d="M0 0 C0.33 0 0.66 0 1 0 C1.33 3.3 1.66 6.6 2 10 C2.99 10.33 3.98 10.66 5 11 C6.43194455 17.16783922 5.9257329 20.21623425 2.63085938 25.59960938 C2.15455078 26.32986328 1.67824219 27.06011719 1.1875 27.8125 C0.72279297 28.56208984 0.25808594 29.31167969 -0.22070312 30.08398438 C-2.09480807 33.09276979 -4.03372504 36.05058755 -6 39 C-7.32 38.34 -8.64 37.68 -10 37 C-10.37687318 32.47752181 -10.37687318 32.47752181 -8.68359375 30.33203125 C-6.3527711 27.10349036 -5.18396696 23.67746431 -3.875 19.9375 C-3.60929199 19.1854126 -3.34358398 18.4333252 -3.06982422 17.65844727 C-1.08811225 11.80407201 -0.02681078 6.20669612 0 0 Z " fill="#457298" transform="translate(404,249)"/>
<path d="M0 0 C5.45244031 5.45244031 7.21383372 10.10963048 7.75 17.75 C7.09 17.75 6.43 17.75 5.75 17.75 C5.605625 16.656875 5.46125 15.56375 5.3125 14.4375 C4.86711896 10.81877013 4.86711896 10.81877013 3.75 7.75 C3.09 7.75 2.43 7.75 1.75 7.75 C1.42 10.06 1.09 12.37 0.75 14.75 C0.09 13.76 -0.57 12.77 -1.25 11.75 C-5.90265823 6.73944498 -8.7153386 5.69346914 -15.4375 5.1875 C-16.52417969 5.10371094 -17.61085937 5.01992187 -18.73046875 4.93359375 C-19.56191406 4.87300781 -20.39335937 4.81242188 -21.25 4.75 C-21.25 4.42 -21.25 4.09 -21.25 3.75 C-17.62 3.42 -13.99 3.09 -10.25 2.75 C-10.25 2.09 -10.25 1.43 -10.25 0.75 C-9.59 0.09 -8.93 -0.57 -8.25 -1.25 C-9.57 -1.25 -10.89 -1.25 -12.25 -1.25 C-12.25 -1.91 -12.25 -2.57 -12.25 -3.25 C-16.87 -2.92 -21.49 -2.59 -26.25 -2.25 C-26.58 -1.26 -26.91 -0.27 -27.25 0.75 C-27.58 -0.24 -27.91 -1.23 -28.25 -2.25 C-30.89 -1.92 -33.53 -1.59 -36.25 -1.25 C-35.92 -1.91 -35.59 -2.57 -35.25 -3.25 C-23.4491652 -6.89834969 -10.32268871 -7.1464768 0 0 Z " fill="#6289A9" transform="translate(220.25,152.25)"/>
<path d="M0 0 C4.04299592 3.9204809 5.67445438 8.63756545 7 14 C7 14.99 7 15.98 7 17 C6.34 17 5.68 17 5 17 C4.855625 15.906875 4.71125 14.81375 4.5625 13.6875 C4.11711896 10.06877013 4.11711896 10.06877013 3 7 C2.34 7 1.68 7 1 7 C0.67 9.31 0.34 11.62 0 14 C-0.66 13.01 -1.32 12.02 -2 11 C-2.680625 10.4225 -3.36125 9.845 -4.0625 9.25 C-6.62079402 6.27907791 -6.70466564 3.83934673 -7 0 C-3.80484947 -1.06505018 -3.00991004 -1.27693153 0 0 Z " fill="#567C9A" transform="translate(221,153)"/>
<path d="M0 0 C0 0.33 0 0.66 0 1 C-0.87325928 1.02505615 -1.74651855 1.0501123 -2.64624023 1.07592773 C-5.87602552 1.17087709 -9.10564154 1.27012029 -12.33520508 1.37231445 C-13.73489199 1.41571434 -15.13463359 1.45738564 -16.53442383 1.49731445 C-18.54261495 1.55489445 -20.55061149 1.61914 -22.55859375 1.68359375 C-23.76829834 1.72025146 -24.97800293 1.75690918 -26.22436523 1.79467773 C-28.90705456 1.68938266 -28.90705456 1.68938266 -30 3 C-33.18584506 3.06018125 -36.35590889 3.02008526 -39.54101562 2.9609375 C-43.39606823 2.83271185 -43.39606823 2.83271185 -47 4 C-49.3329866 4.04022391 -51.66706666 4.04320247 -54 4 C-38.6486921 -4.31964306 -16.79894185 -1.28516495 0 0 Z " fill="#84A0B8" transform="translate(136,34)"/>
<path d="M0 0 C1.98 0 3.96 0 6 0 C7.4783226 2.95664519 7.06032783 5.74229737 7 9 C6.01 9.33 5.02 9.66 4 10 C3.01 11.485 3.01 11.485 2 13 C1.34 13 0.68 13 0 13 C-0.33 12.34 -0.66 11.68 -1 11 C-1.33 11.66 -1.66 12.32 -2 13 C-2.66 13 -3.32 13 -4 13 C-3.58578031 8.16743695 -1.53586014 6.17320782 2 3 C1.34 2.67 0.68 2.34 0 2 C0 1.34 0 0.68 0 0 Z " fill="#336692" transform="translate(384,148)"/>
<path d="M0 0 C-0.33 0.99 -0.66 1.98 -1 3 C-1.66 3 -2.32 3 -3 3 C-3 3.66 -3 4.32 -3 5 C-4.5625 6.6875 -4.5625 6.6875 -7 8 C-10.75 7.6875 -10.75 7.6875 -14 7 C-14 6.34 -14 5.68 -14 5 C-16.31 4.67 -18.62 4.34 -21 4 C-21 3.67 -21 3.34 -21 3 C-18.25071558 2.49576443 -15.50068857 1.99646574 -12.75 1.5 C-11.97269531 1.35691406 -11.19539063 1.21382813 -10.39453125 1.06640625 C-9.64042969 0.93105469 -8.88632812 0.79570312 -8.109375 0.65625 C-7.07248535 0.46772461 -7.07248535 0.46772461 -6.01464844 0.27539062 C-4 0 -4 0 0 0 Z " fill="#5C81A1" transform="translate(460,314)"/>
<path d="M0 0 C0.66 1.32 1.32 2.64 2 4 C2.66 4 3.32 4 4 4 C4 3.34 4 2.68 4 2 C4.66 2 5.32 2 6 2 C6.33 1.34 6.66 0.68 7 0 C6.34097701 3.57040303 4.83770842 6.17732255 2.9375 9.25 C2.38964844 10.14203125 1.84179688 11.0340625 1.27734375 11.953125 C0.64505859 12.96632813 0.64505859 12.96632813 0 14 C-1.32 13.34 -2.64 12.68 -4 12 C-4.34734012 7.8319185 -3.64652221 6.17582665 -1 3 C-0.67 2.01 -0.34 1.02 0 0 Z " fill="#6385A2" transform="translate(398,274)"/>
<path d="M0 0 C0.33 0.66 0.66 1.32 1 2 C2.32 1.67 3.64 1.34 5 1 C5.33 2.32 5.66 3.64 6 5 C6.33 4.01 6.66 3.02 7 2 C9.31 2.33 11.62 2.66 14 3 C14 3.33 14 3.66 14 4 C9.545 5.485 9.545 5.485 5 7 C5 10.76687864 5.23537317 11.91190305 7 15 C6.01 15 5.02 15 4 15 C4 14.01 4 13.02 4 12 C3.34 12 2.68 12 2 12 C1.34 9.69 0.68 7.38 0 5 C-1.32 5 -2.64 5 -4 5 C-4 4.34 -4 3.68 -4 3 C-3.34 3 -2.68 3 -2 3 C-2 2.34 -2 1.68 -2 1 C-1.34 0.67 -0.68 0.34 0 0 Z " fill="#6387A4" transform="translate(353,150)"/>
<path d="M0 0 C-0.99 0 -1.98 0 -3 0 C-3 0.66 -3 1.32 -3 2 C-2.34 2 -1.68 2 -1 2 C-0.67 2.66 -0.34 3.32 0 4 C1.32 4.66 2.64 5.32 4 6 C0.37 6 -3.26 6 -7 6 C-7.33 6.66 -7.66 7.32 -8 8 C-8.66 7.67 -9.32 7.34 -10 7 C-9.67 6.01 -9.34 5.02 -9 4 C-10.32 4.33 -11.64 4.66 -13 5 C-13 4.01 -13 3.02 -13 2 C-11.5882217 1.46605821 -10.17029756 0.94834896 -8.75 0.4375 C-7.96109375 0.14746094 -7.1721875 -0.14257812 -6.359375 -0.44140625 C-3.80896548 -1.04522837 -2.44677771 -0.8473932 0 0 Z " fill="#587F9F" transform="translate(367,147)"/>
<path d="M0 0 C0.33 0.66 0.66 1.32 1 2 C0.109375 4.2421875 0.109375 4.2421875 -1.25 6.875 C-1.68828125 7.73867188 -2.1265625 8.60234375 -2.578125 9.4921875 C-3.91131275 11.84357907 -5.23129594 13.95553026 -7 16 C-7.66 16 -8.32 16 -9 16 C-9.33 16.66 -9.66 17.32 -10 18 C-10 17.34 -10 16.68 -10 16 C-10.66 15.67 -11.32 15.34 -12 15 C-11.01 15 -10.02 15 -9 15 C-9.33 14.01 -9.66 13.02 -10 12 C-9.04422943 10.63461347 -8.03647024 9.30518475 -7 8 C-6.28837557 6.35202764 -5.60968047 4.68834592 -5 3 C-4.01 3 -3.02 3 -2 3 C-1.34 2.01 -0.68 1.02 0 0 Z " fill="#567CA3" transform="translate(350,447)"/>
<path d="M0 0 C3.46365398 1.15455133 4.19137152 1.90559139 6 5 C6.29296875 7.578125 6.29296875 7.578125 6.1875 10.25 C6.16042969 11.14203125 6.13335937 12.0340625 6.10546875 12.953125 C6.07066406 13.62859375 6.03585938 14.3040625 6 15 C7.32 15.66 8.64 16.32 10 17 C9.01 19.31 8.02 21.62 7 24 C6.67 24 6.34 24 6 24 C4.99353274 20.56435978 3.9959455 17.12620371 3 13.6875 C2.71382812 12.71103516 2.42765625 11.73457031 2.1328125 10.72851562 C1.86210938 9.79072266 1.59140625 8.85292969 1.3125 7.88671875 C1.06113281 7.02264404 0.80976562 6.15856934 0.55078125 5.26831055 C0 3 0 3 0 0 Z " fill="#7090AA" transform="translate(46,229)"/>
<path d="M0 0 C3.95831809 -0.02892857 7.91660917 -0.04677427 11.875 -0.0625 C13.56689453 -0.07506836 13.56689453 -0.07506836 15.29296875 -0.08789062 C16.36933594 -0.09111328 17.44570313 -0.09433594 18.5546875 -0.09765625 C19.54968262 -0.10289307 20.54467773 -0.10812988 21.56982422 -0.11352539 C24 0 24 0 26 1 C26 4.63 26 8.26 26 12 C25.01 12.495 25.01 12.495 24 13 C24 10.36 24 7.72 24 5 C23.01 4.67 22.02 4.34 21 4 C20.34 3.34 19.68 2.68 19 2 C16.96939341 1.63105418 16.96939341 1.63105418 14.6484375 1.5859375 C13.79765625 1.54726562 12.946875 1.50859375 12.0703125 1.46875 C11.18085938 1.4378125 10.29140625 1.406875 9.375 1.375 C8.4778125 1.33632812 7.580625 1.29765625 6.65625 1.2578125 C4.4377073 1.16340643 2.21917597 1.07783252 0 1 C0 0.67 0 0.34 0 0 Z " fill="#6E8BA4" transform="translate(367,145)"/>
<path d="M0 0 C5.5021816 -0.23136637 10.13853778 0.5649654 15.4375 2 C16.16904297 2.19078125 16.90058594 2.3815625 17.65429688 2.578125 C19.43819666 3.04450403 21.21939845 3.52118278 23 4 C23 4.33 23 4.66 23 5 C18.38 5.33 13.76 5.66 9 6 C8.67 5.01 8.34 4.02 8 3 C7.05125 2.87625 6.1025 2.7525 5.125 2.625 C2 2 2 2 0 0 Z " fill="#6C8EAB" transform="translate(275,34)"/>
<path d="M0 0 C-3.2123448 2.1415632 -6.52041741 3.58152752 -10.0625 5.0625 C-14.57470794 6.93534151 -14.57470794 6.93534151 -19 9 C-19 7.35 -19 5.7 -19 4 C-17.68 4.33 -16.36 4.66 -15 5 C-15 3.35 -15 1.7 -15 0 C-14.06027344 0.01740234 -14.06027344 0.01740234 -13.1015625 0.03515625 C-11.87566406 0.04869141 -11.87566406 0.04869141 -10.625 0.0625 C-9.40683594 0.07990234 -9.40683594 0.07990234 -8.1640625 0.09765625 C-0.78451883 -0.23535565 -0.78451883 -0.23535565 0 0 Z " fill="#567C9C" transform="translate(177,139)"/>
<path d="M0 0 C2.70001643 2.70001643 2.62675733 4.18369854 3 8 C2.97183362 11.63274067 2.77622834 15.24898824 2.5625 18.875 C2.51029297 19.84953125 2.45808594 20.8240625 2.40429688 21.828125 C2.27536992 24.21913402 2.14044056 26.60964426 2 29 C1.34 29 0.68 29 0 29 C0 19.43 0 9.86 0 0 Z " fill="#6988A2" transform="translate(253,399)"/>
<path d="M0 0 C1.32 0 2.64 0 4 0 C4 0.66 4 1.32 4 2 C5.66666667 2.33333333 7.33333333 2.66666667 9 3 C9.886875 3.226875 10.77375 3.45375 11.6875 3.6875 C12.8321875 3.8421875 12.8321875 3.8421875 14 4 C14.66 3.34 15.32 2.68 16 2 C16 2.66 16 3.32 16 4 C16.66 4 17.32 4 18 4 C18 5.32 18 6.64 18 8 C20.31 8 22.62 8 25 8 C25 8.33 25 8.66 25 9 C16.53212729 9.81421853 8.89429461 6.95392606 2.13671875 1.828125 C1.43160156 1.22484375 0.72648438 0.6215625 0 0 Z " fill="#6488A7" transform="translate(179,287)"/>
<path d="M0 0 C0.66 0.66 1.32 1.32 2 2 C1.66083005 5.18819752 1.01406317 7.95781049 0 11 C-0.99 11 -1.98 11 -3 11 C-3.99 8.69 -4.98 6.38 -6 4 C-5.01 3.67 -4.02 3.34 -3 3 C-3 2.34 -3 1.68 -3 1 C-2.01 0.67 -1.02 0.34 0 0 Z " fill="#5D82A1" transform="translate(387,260)"/>
<path d="M0 0 C2.3125 0.1875 2.3125 0.1875 5 1 C6.8125 3.5625 6.8125 3.5625 8 6 C7.01 6.33 6.02 6.66 5 7 C5.33 8.98 5.66 10.96 6 13 C3.0843836 9.45960866 0.49872182 5.8373228 -2 2 C-1.34 2 -0.68 2 0 2 C0 1.34 0 0.68 0 0 Z " fill="#517CA0" transform="translate(375,73)"/>
<path d="M0 0 C0.99 0 1.98 0 3 0 C3.33 0.66 3.66 1.32 4 2 C4.99 2.33 5.98 2.66 7 3 C6.01 3.33 5.02 3.66 4 4 C4 8.62 4 13.24 4 18 C3.34 18 2.68 18 2 18 C1.93941406 17.37351563 1.87882813 16.74703125 1.81640625 16.1015625 C1.73261719 15.28429687 1.64882812 14.46703125 1.5625 13.625 C1.48128906 12.81289062 1.40007812 12.00078125 1.31640625 11.1640625 C1.10909886 8.95727195 1.10909886 8.95727195 0 7 C-0.04022391 4.6670134 -0.04320247 2.33293334 0 0 Z " fill="#517B9B" transform="translate(240,161)"/>
<path d="M0 0 C0.66 0.66 1.32 1.32 2 2 C1.67 2.99 1.34 3.98 1 5 C-4.37305699 5.96891192 -4.37305699 5.96891192 -7 6 C-9 4.5625 -9 4.5625 -10 3 C-7.30045271 -0.81112559 -4.38454651 -0.39859514 0 0 Z " fill="#306795" transform="translate(398,312)"/>
<path d="M0 0 C1.9375 0.6875 1.9375 0.6875 4 2 C4.75 4.625 4.75 4.625 5 7 C5.66 7 6.32 7 7 7 C7 13.27 7 19.54 7 26 C6.67 26 6.34 26 6 26 C5.85304687 24.40671875 5.85304687 24.40671875 5.703125 22.78125 C4.90926675 15.02417317 4.07985975 8.79976625 0 2 C0 1.34 0 0.68 0 0 Z " fill="#7F9EB4" transform="translate(246,309)"/>
<path d="M0 0 C0 2.6705913 -0.30854921 4.46468045 -1 7 C-1.185625 7.7425 -1.37125 8.485 -1.5625 9.25 C-1.706875 9.8275 -1.85125 10.405 -2 11 C-5.12270126 8.48169253 -5.94523098 7.2738451 -6.75 3.25 C-6.8325 2.1775 -6.915 1.105 -7 0 C-3.86650268 -1.04449911 -3.01031744 -0.93423645 0 0 Z " fill="#5B83A6" transform="translate(221,153)"/>
<path d="M0 0 C-3.40431947 2.26954631 -5.16524202 2.36549949 -9.1875 2.625 C-10.27417969 2.69976562 -11.36085937 2.77453125 -12.48046875 2.8515625 C-13.31191406 2.90054688 -14.14335937 2.94953125 -15 3 C-15.33 3.99 -15.66 4.98 -16 6 C-16.33 5.01 -16.66 4.02 -17 3 C-19.64 3.33 -22.28 3.66 -25 4 C-24.67 3.34 -24.34 2.68 -24 2 C-16.21601612 -0.40649883 -8.05724784 -0.23057307 0 0 Z " fill="#91ABBD" transform="translate(209,147)"/>
<path d="M0 0 C0.99 0.33 1.98 0.66 3 1 C3.33 3.31 3.66 5.62 4 8 C4.66 8 5.32 8 6 8 C6 8.99 6 9.98 6 11 C6.66 11 7.32 11 8 11 C8.309375 11.94875 8.61875 12.8975 8.9375 13.875 C9.87394742 16.86080408 9.87394742 16.86080408 11 19 C10.34 19.66 9.68 20.32 9 21 C9 20.01 9 19.02 9 18 C8.34 18 7.68 18 7 18 C5.82887054 15.37690901 4.66294036 12.75171858 3.5 10.125 C3.16613281 9.37863281 2.83226562 8.63226563 2.48828125 7.86328125 C2.17246094 7.14785156 1.85664063 6.43242187 1.53125 5.6953125 C1.23798828 5.03547363 0.94472656 4.37563477 0.64257812 3.69580078 C0 2 0 2 0 0 Z " fill="#6286A5" transform="translate(354,210)"/>
<path d="M0 0 C1.98 0.99 1.98 0.99 4 2 C3.79375 2.7425 3.5875 3.485 3.375 4.25 C2.74592353 6.93244209 2.74592353 6.93244209 3.9375 8.875 C5.4594903 11.9189806 5.12877016 14.65197586 5 18 C4.34 18 3.68 18 3 18 C2.49095343 16.12743583 1.99317545 14.25180659 1.5 12.375 C1.08234375 10.80878906 1.08234375 10.80878906 0.65625 9.2109375 C0.00881404 6.04312582 -0.1161292 3.22258533 0 0 Z " fill="#698BA5" transform="translate(41,206)"/>
<path d="M0 0 C0.33 0 0.66 0 1 0 C1.07347656 1.24716797 1.07347656 1.24716797 1.1484375 2.51953125 C1.22320312 3.60621094 1.29796875 4.69289062 1.375 5.8125 C1.44460937 6.89144531 1.51421875 7.97039062 1.5859375 9.08203125 C1.81195733 12.18626186 1.81195733 12.18626186 4 15 C4.1953125 18.13671875 4.1953125 18.13671875 4.125 21.6875 C4.10695313 22.86699219 4.08890625 24.04648438 4.0703125 25.26171875 C4.03550781 26.61716797 4.03550781 26.61716797 4 28 C3.67 28 3.34 28 3 28 C2.32409812 24.62678224 1.66094482 21.25117758 1 17.875 C0.80921875 16.92367187 0.6184375 15.97234375 0.421875 14.9921875 C-1.37418723 5.75529604 -1.37418723 5.75529604 -1 1 C-0.67 0.67 -0.34 0.34 0 0 Z " fill="#6C8DA8" transform="translate(32,157)"/>
<path d="M0 0 C3.59391114 1.33488128 6.75490696 2.96022723 10 5 C9.67 5.66 9.34 6.32 9 7 C9 7.66 9 8.32 9 9 C6.36 9 3.72 9 1 9 C1.20625 8.071875 1.4125 7.14375 1.625 6.1875 C2.36692966 2.84826598 2.36692966 2.84826598 0 0 Z " fill="#547D9F" transform="translate(328,53)"/>
<path d="M0 0 C0.66 0.33 1.32 0.66 2 1 C2 1.66 2 2.32 2 3 C1.01 3.33 0.02 3.66 -1 4 C-2.96042985 6.24872836 -4.66404483 8.32808966 -6 11 C-7.97888961 11.72693904 -9.97954558 12.39816251 -12 13 C-10.44997253 9.11602311 -7.99523379 6.97020381 -4.875 4.25 C-3.96492188 3.45078125 -3.05484375 2.6515625 -2.1171875 1.828125 C-1.06917969 0.92320313 -1.06917969 0.92320313 0 0 Z " fill="#6D92AB" transform="translate(60,47)"/>
<path d="M0 0 C1.12642186 3.37926557 0.96344705 3.72928278 -0.43359375 6.79296875 C-0.75263672 7.50517578 -1.07167969 8.21738281 -1.40039062 8.95117188 C-1.74263672 9.68916016 -2.08488281 10.42714844 -2.4375 11.1875 C-2.77587891 11.93708984 -3.11425781 12.68667969 -3.46289062 13.45898438 C-4.2999411 15.30992698 -5.14885404 17.15549666 -6 19 C-6.33 19 -6.66 19 -7 19 C-6.85892253 17.54119891 -6.71197585 16.08296449 -6.5625 14.625 C-6.48128906 13.81289063 -6.40007812 13.00078125 -6.31640625 12.1640625 C-6 10 -6 10 -5 8 C-4.34 8 -3.68 8 -3 8 C-2.814375 6.2984375 -2.814375 6.2984375 -2.625 4.5625 C-2.41875 3.386875 -2.2125 2.21125 -2 1 C-1.34 0.67 -0.68 0.34 0 0 Z " fill="#6E8EA9" transform="translate(224,252)"/>
<path d="M0 0 C1.32 0.99 2.64 1.98 4 3 C1.6892779 10.5273523 1.6892779 10.5273523 -1.1875 12.5 C-1.785625 12.665 -2.38375 12.83 -3 13 C-3.66 12.34 -4.32 11.68 -5 11 C-4.360625 10.2575 -3.72125 9.515 -3.0625 8.75 C-1.21666593 6.2888879 -0.43930826 4.96533074 0 2 C-0.66 1.67 -1.32 1.34 -2 1 C-1.34 0.67 -0.68 0.34 0 0 Z " fill="#6687A2" transform="translate(378,153)"/>
<path d="M0 0 C0 0.66 0 1.32 0 2 C-0.91910156 1.83628906 -1.83820313 1.67257813 -2.78515625 1.50390625 C-7.98809668 0.76062905 -13.19312905 0.89314293 -18.4375 0.9375 C-19.45521484 0.94201172 -20.47292969 0.94652344 -21.52148438 0.95117188 C-24.01438509 0.96287563 -26.50716074 0.97927152 -29 1 C-26.1150158 -1.8849842 -23.77197005 -1.41207217 -19.75 -1.625 C-18.44546875 -1.69976562 -17.1409375 -1.77453125 -15.796875 -1.8515625 C-9.93646822 -2.08067305 -5.53314756 -2.10786574 0 0 Z " fill="#95ADC2" transform="translate(219,135)"/>
<path d="M0 0 C0.66 0.33 1.32 0.66 2 1 C-3.28 6.28 -8.56 11.56 -14 17 C-14.66 16.67 -15.32 16.34 -16 16 C-5.62642369 4.29384966 -5.62642369 4.29384966 0 0 Z " fill="#3D3D3D" transform="translate(40,28)"/>
<path d="M0 0 C0.33 0 0.66 0 1 0 C1.33 5.61 1.66 11.22 2 17 C3.32 17.66 4.64 18.32 6 19 C5.67 20.65 5.34 22.3 5 24 C-0.56426412 15.65360383 -1.48265234 9.77749108 0 0 Z " fill="#85A2B8" transform="translate(256,434)"/>
<path d="M0 0 C0.66 0.33 1.32 0.66 2 1 C1.69217504 2.64671412 1.37860766 4.29235576 1.0625 5.9375 C0.88847656 6.85402344 0.71445313 7.77054687 0.53515625 8.71484375 C0 11 0 11 -1 12 C-1.23363881 13.84891946 -1.41303635 15.70488031 -1.5625 17.5625 C-1.64628906 18.57441406 -1.73007813 19.58632812 -1.81640625 20.62890625 C-1.87699219 21.41136719 -1.93757812 22.19382813 -2 23 C-2.66 23 -3.32 23 -4 23 C-3.59378936 14.97383806 -2.40152224 7.67278805 0 0 Z " fill="#6E93AD" transform="translate(163,111)"/>
<path d="M0 0 C5.47932789 1.54545146 10.11429181 4.15543212 15 7 C14.67 7.66 14.34 8.32 14 9 C12.68 9 11.36 9 10 9 C9.67 8.34 9.34 7.68 9 7 C6.47266765 6.34444881 6.47266765 6.34444881 4 6 C4 5.01 4 4.02 4 3 C3.01 3 2.02 3 1 3 C0.67 2.01 0.34 1.02 0 0 Z " fill="#7693AC" transform="translate(413,39)"/>
<path d="M0 0 C0.66 0.33 1.32 0.66 2 1 C2 1.66 2 2.32 2 3 C2.66 3 3.32 3 4 3 C3.67 3.99 3.34 4.98 3 6 C0.93359375 6.94921875 0.93359375 6.94921875 -1.5625 7.6875 C-2.80193359 8.06455078 -2.80193359 8.06455078 -4.06640625 8.44921875 C-4.70449219 8.63097656 -5.34257812 8.81273437 -6 9 C-6 7.68 -6 6.36 -6 5 C-4.02 4.67 -2.04 4.34 0 4 C0 2.68 0 1.36 0 0 Z " fill="#7492AA" transform="translate(385,294)"/>
<path d="M0 0 C0.99 0 1.98 0 3 0 C3 1.32 3 2.64 3 4 C5.31 4.66 7.62 5.32 10 6 C10 6.33 10 6.66 10 7 C6.37 7 2.74 7 -1 7 C-0.67 4.69 -0.34 2.38 0 0 Z " fill="#7C97AF" transform="translate(222,293)"/>
<path d="M0 0 C0.99 0.33 1.98 0.66 3 1 C1.88182488 3.14964682 0.75592552 5.29457566 -0.375 7.4375 C-0.85066406 8.35499023 -0.85066406 8.35499023 -1.3359375 9.29101562 C-3.7734375 13.88671875 -3.7734375 13.88671875 -6 15 C-5.745504 13.51793505 -5.47088238 12.03931385 -5.1875 10.5625 C-5.03667969 9.73878906 -4.88585937 8.91507812 -4.73046875 8.06640625 C-4.48941406 7.38449219 -4.24835938 6.70257813 -4 6 C-3.01 5.67 -2.02 5.34 -1 5 C-0.67 3.35 -0.34 1.7 0 0 Z " fill="#6C90AD" transform="translate(416,250)"/>
<path d="M0 0 C6 7.71428571 6 7.71428571 6 12 C5.01 12.33 4.02 12.66 3 13 C-0.36055646 8.51925805 -0.27429625 5.39449293 0 0 Z " fill="#5B80A1" transform="translate(379,106)"/>
<path d="M0 0 C3.53571429 0.53571429 3.53571429 0.53571429 5 2 C5.04080783 3.99958364 5.04254356 6.00045254 5 8 C4.01 7.34 3.02 6.68 2 6 C2 5.34 2 4.68 2 4 C1.34 4 0.68 4 0 4 C-0.33 4.66 -0.66 5.32 -1 6 C-1.625 4.125 -1.625 4.125 -2 2 C-1.34 1.34 -0.68 0.68 0 0 Z " fill="#36648C" transform="translate(350,154)"/>
<path d="M0 0 C0.928125 0.144375 1.85625 0.28875 2.8125 0.4375 C7.85405316 1.16364963 12.92629204 1.5687807 18 2 C15.51997407 4.48002593 14.67167487 4.29694693 11.25 4.3125 C6.81575025 4.24180906 3.80719866 3.40454652 0 1 C0 0.67 0 0.34 0 0 Z " fill="#7898AF" transform="translate(100,345)"/>
<path d="M0 0 C1 3 1 3 -0.3125 6.0625 C-1.95934416 8.92922872 -3.68333327 10.68333327 -6 13 C-6.66 12.67 -7.32 12.34 -8 12 C-6.59023295 8.96147295 -4.91129772 6.4060405 -2.875 3.75 C-2.06675781 2.69039063 -2.06675781 2.69039063 -1.2421875 1.609375 C-0.83226562 1.07828125 -0.42234375 0.5471875 0 0 Z " fill="#7B95AE" transform="translate(216,319)"/>
<path d="M0 0 C1.4800841 0.11362262 2.95910074 0.24122908 4.4375 0.375 C5.26121094 0.44460937 6.08492187 0.51421875 6.93359375 0.5859375 C7.95646484 0.79089844 7.95646484 0.79089844 9 1 C9.33 1.66 9.66 2.32 10 3 C8.54536519 3.38909985 7.08608793 3.76088029 5.625 4.125 C4.81289062 4.33382812 4.00078125 4.54265625 3.1640625 4.7578125 C2.44992188 4.83773437 1.73578125 4.91765625 1 5 C0.34 4.34 -0.32 3.68 -1 3 C-0.67 2.01 -0.34 1.02 0 0 Z " fill="#5B809F" transform="translate(139,35)"/>
<path d="M0 0 C-0.99 0.33 -1.98 0.66 -3 1 C-3.2475 1.639375 -3.495 2.27875 -3.75 2.9375 C-5 5 -5 5 -8.625 6.25 C-9.73875 6.4975 -10.8525 6.745 -12 7 C-6.20833333 -0.16337719 -6.20833333 -0.16337719 0 0 Z " fill="#7C97B1" transform="translate(229,312)"/>
<path d="M0 0 C3.0780003 2.77020027 4.80482008 5.01606693 6 9 C6 10.32 6 11.64 6 13 C5.34 13 4.68 13 4 13 C3.67 11.35 3.34 9.7 3 8 C2.01 7.67 1.02 7.34 0 7 C0 4.69 0 2.38 0 0 Z " fill="#5A7C9A" transform="translate(454,72)"/>
<path d="M0 0 C0.66 0 1.32 0 2 0 C0.125 5.75 0.125 5.75 -1 8 C-1.99 8 -2.98 8 -4 8 C-4.33 9.98 -4.66 11.96 -5 14 C-5.66 13.67 -6.32 13.34 -7 13 C-5.65846062 7.99971686 -3.51629997 3.80932497 0 0 Z " fill="#6D8FAD" transform="translate(46,60)"/>
<path d="M0 0 C0.33 0 0.66 0 1 0 C1.103125 0.7425 1.20625 1.485 1.3125 2.25 C2.05090806 5.20363226 3.1223192 6.652899 5 9 C5.33 9.99 5.66 10.98 6 12 C2.25 13.125 2.25 13.125 0 12 C0 8.04 0 4.08 0 0 Z " fill="#7A9CB6" transform="translate(380,321)"/>
<path d="M0 0 C3.465 1.98 3.465 1.98 7 4 C7 5.32 7 6.64 7 8 C6.34 8 5.68 8 5 8 C4.34 7.34 3.68 6.68 3 6 C2.34 6 1.68 6 1 6 C0.67 4.02 0.34 2.04 0 0 Z " fill="#6B8DA9" transform="translate(433,51)"/>
<path d="M0 0 C-0.99 0.66 -1.98 1.32 -3 2 C-3.99 3.485 -3.99 3.485 -5 5 C-6.98 4.01 -8.96 3.02 -11 2 C-7.75267347 -1.24732653 -4.25451414 -1.41817138 0 0 Z " fill="#7495AC" transform="translate(327,30)"/>
<path d="M0 0 C2.97 0 5.94 0 9 0 C4.17353323 3.21764451 -1.19821824 4.36261136 -7 4 C-6.67 3.34 -6.34 2.68 -6 2 C-4.02 2 -2.04 2 0 2 C0 1.34 0 0.68 0 0 Z " fill="#6F93AE" transform="translate(311,475)"/>
<path d="M0 0 C0.66 0.99 1.32 1.98 2 3 C1.45730469 3.39832031 0.91460937 3.79664063 0.35546875 4.20703125 C-0.35996094 4.73683594 -1.07539063 5.26664063 -1.8125 5.8125 C-2.87404297 6.59560547 -2.87404297 6.59560547 -3.95703125 7.39453125 C-5.78531393 8.83128877 -7.39896688 10.31815763 -9 12 C-9 10.68 -9 9.36 -9 8 C-8.34 8 -7.68 8 -7 8 C-7 7.34 -7 6.68 -7 6 C-6.34 6 -5.68 6 -5 6 C-4.67 5.01 -4.34 4.02 -4 3 C-3.01 3 -2.02 3 -1 3 C-0.67 2.01 -0.34 1.02 0 0 Z " fill="#7697AD" transform="translate(347,136)"/>
<path d="M0 0 C0.99 0.495 0.99 0.495 2 1 C2.625 3.5625 2.625 3.5625 3 6 C3.99 6.33 4.98 6.66 6 7 C5.01 9.31 4.02 11.62 3 14 C2.67 14 2.34 14 2 14 C0.4087311 9.126739 -0.21192221 5.19209404 0 0 Z " fill="#7597AF" transform="translate(50,239)"/>
<path d="M0 0 C-2.15223046 3.22834569 -2.47566883 3.46380996 -6 4.3125 C-7.051875 4.58513672 -7.051875 4.58513672 -8.125 4.86328125 C-8.74375 4.90839844 -9.3625 4.95351562 -10 5 C-10.66 4.34 -11.32 3.68 -12 3 C-10.5682384 2.30062798 -9.12932968 1.61587282 -7.6875 0.9375 C-6.48673828 0.36322266 -6.48673828 0.36322266 -5.26171875 -0.22265625 C-3 -1 -3 -1 0 0 Z " fill="#7194B0" transform="translate(182,152)"/>
<path d="M0 0 C0.45375 0.495 0.9075 0.99 1.375 1.5 C2.87635519 3.22609337 2.87635519 3.22609337 5 3 C4.34 4.65 3.68 6.3 3 8 C1.68 7.34 0.36 6.68 -1 6 C-1.042721 4.33388095 -1.04063832 2.66617115 -1 1 C-0.67 0.67 -0.34 0.34 0 0 Z " fill="#96AEBF" transform="translate(395,280)"/>
<path d="M0 0 C0.99 0.33 1.98 0.66 3 1 C1.89904638 4.30286086 1.3103981 4.78510901 -1.4375 6.6875 C-2.36369141 7.34298828 -2.36369141 7.34298828 -3.30859375 8.01171875 C-5 9 -5 9 -7 9 C-7 8.34 -7 7.68 -7 7 C-6.01 7 -5.02 7 -4 7 C-4 6.34 -4 5.68 -4 5 C-3.34 5 -2.68 5 -2 5 C-2 4.01 -2 3.02 -2 2 C-1.34 1.34 -0.68 0.68 0 0 Z " fill="#7997B0" transform="translate(125,338)"/>
<path d="M0 0 C0.99 0 1.98 0 3 0 C3 3.96 3 7.92 3 12 C0.50494038 9.50494038 0.64051624 8.32671112 0.375 4.875 C0.30023438 3.96492187 0.22546875 3.05484375 0.1484375 2.1171875 C0.09945312 1.41851562 0.05046875 0.71984375 0 0 Z " fill="#5F809B" transform="translate(36,185)"/>
<path d="M0 0 C0.66 0.33 1.32 0.66 2 1 C1.3125 3.4375 1.3125 3.4375 0 6 C-2.625 6.8125 -2.625 6.8125 -5 7 C-3.70700306 4.11562221 -2.34058637 2.12780579 0 0 Z " fill="#7392AB" transform="translate(197,51)"/>
<path d="M0 0 C0 3 0 3 -2 6 C-2.66 6 -3.32 6 -4 6 C-4.33 6.66 -4.66 7.32 -5 8 C-5 7.34 -5 6.68 -5 6 C-5.66 5.67 -6.32 5.34 -7 5 C-6.01 5 -5.02 5 -4 5 C-4.33 4.01 -4.66 3.02 -5 2 C-3.35 1.34 -1.7 0.68 0 0 Z " fill="#7796B2" transform="translate(345,457)"/>
<path d="M0 0 C2.475 0.495 2.475 0.495 5 1 C5.66 3.31 6.32 5.62 7 8 C6.34 8 5.68 8 5 8 C5 7.34 5 6.68 5 6 C4.34 6 3.68 6 3 6 C2.01 4.02 1.02 2.04 0 0 Z " fill="#7C9BB2" transform="translate(88,332)"/>
<path d="M0 0 C-0.33 0.66 -0.66 1.32 -1 2 C-1.66 2 -2.32 2 -3 2 C-3 2.66 -3 3.32 -3 4 C-3.66 4 -4.32 4 -5 4 C-5.33 4.66 -5.66 5.32 -6 6 C-6.33 4.02 -6.66 2.04 -7 0 C-3.98968256 -0.93423645 -3.13349732 -1.04449911 0 0 Z " fill="#6388A3" transform="translate(162,301)"/>
<path d="M0 0 C2.50155273 1.25077637 2.92212548 2.35027305 4.1875 4.8125 C4.55230469 5.49957031 4.91710937 6.18664062 5.29296875 6.89453125 C6.12087895 9.35996549 5.85276722 10.58292094 5 13 C4.71125 12.38125 4.4225 11.7625 4.125 11.125 C3.06279958 8.86674235 3.06279958 8.86674235 1 7 C0.59952556 4.67724823 0.2602896 2.34260643 0 0 Z " fill="#7C9CB1" transform="translate(369,269)"/>
<path d="M0 0 C0.33 0 0.66 0 1 0 C1 5.28 1 10.56 1 16 C0.01 16.33 -0.98 16.66 -2 17 C-1.34 11.39 -0.68 5.78 0 0 Z " fill="#7092AD" transform="translate(404,249)"/>
<path d="M0 0 C0.66 0.33 1.32 0.66 2 1 C1.34 3.31 0.68 5.62 0 8 C-0.66 8 -1.32 8 -2 8 C-2 9.32 -2 10.64 -2 12 C-2.66 12 -3.32 12 -4 12 C-3.52309796 10.37433394 -3.04340334 8.74948689 -2.5625 7.125 C-2.29566406 6.22007812 -2.02882812 5.31515625 -1.75390625 4.3828125 C-1 2 -1 2 0 0 Z " fill="#6C8EA7" transform="translate(237,256)"/>
<path d="M0 0 C0.33 0 0.66 0 1 0 C1.66 5.61 2.32 11.22 3 17 C2.67 16.34 2.34 15.68 2 15 C1.34 15 0.68 15 0 15 C0 10.05 0 5.1 0 0 Z " fill="#7E9BB4" transform="translate(142,244)"/>
<path d="M0 0 C1.60517097 0.08733576 3.20921662 0.19552224 4.8125 0.3125 C6.15248047 0.39951172 6.15248047 0.39951172 7.51953125 0.48828125 C10.30604 1.06313581 11.24135754 1.8206856 13 4 C12.01 4.33 11.02 4.66 10 5 C9.67 4.01 9.34 3.02 9 2 C6.69 2.33 4.38 2.66 2 3 C2 2.34 2 1.68 2 1 C1.34 0.67 0.68 0.34 0 0 Z " fill="#6D8DA6" transform="translate(206,148)"/>
<path d="M0 0 C1.98 0 3.96 0 6 0 C3.03 3.96 3.03 3.96 0 8 C-1.09658936 4.71023192 -0.79953138 3.28696233 0 0 Z " fill="#708FA7" transform="translate(129,331)"/>
<path d="M0 0 C0.66 0.66 1.32 1.32 2 2 C1.04287109 2.07347656 1.04287109 2.07347656 0.06640625 2.1484375 C-0.75988281 2.22320312 -1.58617187 2.29796875 -2.4375 2.375 C-3.26121094 2.44460938 -4.08492188 2.51421875 -4.93359375 2.5859375 C-5.61550781 2.72257812 -6.29742187 2.85921875 -7 3 C-7.33 3.66 -7.66 4.32 -8 5 C-8.66 4.34 -9.32 3.68 -10 3 C-7.30045271 -0.81112559 -4.38454651 -0.39859514 0 0 Z " fill="#376486" transform="translate(398,312)"/>
<path d="M0 0 C0.33 0.66 0.66 1.32 1 2 C1.99 2.33 2.98 2.66 4 3 C3.01 4.98 2.02 6.96 1 9 C0.34 8.67 -0.32 8.34 -1 8 C-1.75 5.625 -1.75 5.625 -2 3 C-1.34 2.01 -0.68 1.02 0 0 Z " fill="#567EA2" transform="translate(75,302)"/>
<path d="M0 0 C0.99 0 1.98 0 3 0 C3 2.31 3 4.62 3 7 C1.68 7.33 0.36 7.66 -1 8 C-0.67 5.36 -0.34 2.72 0 0 Z " fill="#33658F" transform="translate(402,266)"/>
<path d="M0 0 C2.672336 3.56311466 3.77263971 5.84585747 5 10 C3.68 10 2.36 10 1 10 C0.67 6.7 0.34 3.4 0 0 Z " fill="#7F9BB2" transform="translate(147,266)"/>
<path d="M0 0 C0.33 0 0.66 0 1 0 C1.33 1.98 1.66 3.96 2 6 C2.66 6 3.32 6 4 6 C4.36923077 10.55384615 4.36923077 10.55384615 2.5 12.8125 C2.005 13.204375 1.51 13.59625 1 14 C0.04738513 9.23692563 -0.08333357 4.8333472 0 0 Z " fill="#7B9FBB" transform="translate(244,186)"/>
<path d="M0 0 C1.15957207 3.47871621 0.77456651 4.34219645 -0.4375 7.6875 C-0.86869141 8.89986328 -0.86869141 8.89986328 -1.30859375 10.13671875 C-1.53675781 10.75160156 -1.76492188 11.36648437 -2 12 C-2.66 11.67 -3.32 11.34 -4 11 C-4 9 -4 9 -3 8 C-3 7.01 -3 6.02 -3 5 C-2.05273046 3.30280873 -1.05771739 1.63064764 0 0 Z " fill="#7396B1" transform="translate(449,171)"/>
<path d="M0 0 C0.33 0.66 0.66 1.32 1 2 C1.99 2 2.98 2 4 2 C4.33 3.65 4.66 5.3 5 7 C2.50638429 5.79618552 0.31856917 4.54571278 -2 3 C-2 2.34 -2 1.68 -2 1 C-1.34 0.67 -0.68 0.34 0 0 Z " fill="#6B8CA8" transform="translate(225,137)"/>
<path d="M0 0 C0.66 0.99 1.32 1.98 2 3 C1.125 6.1875 1.125 6.1875 0 9 C-0.99 9 -1.98 9 -3 9 C-3.33 9.99 -3.66 10.98 -4 12 C-3.33501617 7.61110675 -1.81242323 4.0188515 0 0 Z " fill="#7B97AE" transform="translate(173,83)"/>
<path d="M0 0 C-0.33 0.99 -0.66 1.98 -1 3 C-1.66 3 -2.32 3 -3 3 C-3 3.66 -3 4.32 -3 5 C-3.99 5.33 -4.98 5.66 -6 6 C-6.33 4.35 -6.66 2.7 -7 1 C-4 0 -4 0 0 0 Z " fill="#7B96AD" transform="translate(460,314)"/>
<path d="M0 0 C0.99 0.33 1.98 0.66 3 1 C2.40072174 4.35595828 1.15377564 6.37801226 -1 9 C-1.09765625 2.84765625 -1.09765625 2.84765625 -1 1 C-0.67 0.67 -0.34 0.34 0 0 Z " fill="#6386A1" transform="translate(407,264)"/>
<path d="M0 0 C2.11180592 2.57089417 3.66306057 4.63060567 4 8 C3.34 8.66 2.68 9.32 2 10 C-1.07692308 4.58461538 -1.07692308 4.58461538 -0.6875 1.625 C-0.460625 1.08875 -0.23375 0.5525 0 0 Z " fill="#6488A5" transform="translate(361,253)"/>
<path d="M0 0 C0.66 0 1.32 0 2 0 C3.20272819 2.40545638 3.10071472 3.94996953 3.0625 6.625 C3.05347656 7.44226563 3.04445313 8.25953125 3.03515625 9.1015625 C3.02355469 9.72804687 3.01195312 10.35453125 3 11 C2.01 10.67 1.02 10.34 0 10 C0 6.7 0 3.4 0 0 Z " fill="#57829F" transform="translate(329,158)"/>
<path d="M0 0 C0 0.66 0 1.32 0 2 C-0.66 2 -1.32 2 -2 2 C-2.33 3.32 -2.66 4.64 -3 6 C-3.66 5.67 -4.32 5.34 -5 5 C-4.67 4.01 -4.34 3.02 -4 2 C-5.32 2.33 -6.64 2.66 -8 3 C-8 2.34 -8 1.68 -8 1 C-3.375 -1.125 -3.375 -1.125 0 0 Z " fill="#376389" transform="translate(362,149)"/>
<path d="M0 0 C1.32 0.33 2.64 0.66 4 1 C2.68 3.64 1.36 6.28 0 9 C-0.66 8.67 -1.32 8.34 -2 8 C-1.34 5.36 -0.68 2.72 0 0 Z " fill="#66869E" transform="translate(334,148)"/>
<path d="M0 0 C0 0.66 0 1.32 0 2 C-0.66 2 -1.32 2 -2 2 C-2.33 2.99 -2.66 3.98 -3 5 C-3.33 4.01 -3.66 3.02 -4 2 C-6.64 2.33 -9.28 2.66 -12 3 C-11.67 2.34 -11.34 1.68 -11 1 C-7.25801961 0.29396596 -3.81207261 0 0 0 Z " fill="#7696AF" transform="translate(196,148)"/>
<path d="M0 0 C1.32 0.33 2.64 0.66 4 1 C2.68 3.31 1.36 5.62 0 8 C-0.66 7.67 -1.32 7.34 -2 7 C-1.125 2.25 -1.125 2.25 0 0 Z " fill="#60809C" transform="translate(170,58)"/>
<path d="M0 0 C0.66 0 1.32 0 2 0 C1.34 4.62 0.68 9.24 0 14 C-0.33 14 -0.66 14 -1 14 C-2.12029814 8.51053913 -1.79217969 5.16569441 0 0 Z " fill="#87A2B7" transform="translate(354,426)"/>
<path d="M0 0 C1.32 0 2.64 0 4 0 C4 0.66 4 1.32 4 2 C4.78375 2.103125 5.5675 2.20625 6.375 2.3125 C9 3 9 3 11 6 C6.49197399 4.74194623 3.5087188 3.09592835 0 0 Z " fill="#819CB3" transform="translate(179,287)"/>
<path d="M0 0 C1.25541557 3.76624671 0.37061958 5.37188934 -1 9 C-1.66 9 -2.32 9 -3 9 C-3.1875 5.625 -3.1875 5.625 -3 2 C-2.01 1.34 -1.02 0.68 0 0 Z " fill="#5F819E" transform="translate(228,241)"/>
<path d="M0 0 C2.00293347 3.00440021 2.49271626 4.70993945 3.125 8.1875 C3.29257812 9.08855469 3.46015625 9.98960937 3.6328125 10.91796875 C3.75398438 11.60503906 3.87515625 12.29210937 4 13 C3.01 12.67 2.02 12.34 1 12 C1 9.69 1 7.38 1 5 C0.34 4.67 -0.32 4.34 -1 4 C-0.67 2.68 -0.34 1.36 0 0 Z " fill="#7595AC" transform="translate(332,185)"/>
<path d="M0 0 C2.31 0.33 4.62 0.66 7 1 C7 1.33 7 1.66 7 2 C6.06027344 2.30744141 6.06027344 2.30744141 5.1015625 2.62109375 C4.28429687 2.89050781 3.46703125 3.15992188 2.625 3.4375 C1.81289063 3.70433594 1.00078125 3.97117188 0.1640625 4.24609375 C-2.01031799 4.95179729 -2.01031799 4.95179729 -4 6 C-4 5.01 -4 4.02 -4 3 C-3.01 3 -2.02 3 -1 3 C-0.67 2.01 -0.34 1.02 0 0 Z " fill="#7897B3" transform="translate(360,152)"/>
<path d="M0 0 C3.3 0 6.6 0 10 0 C5 2.5 5 2.5 0 5 C0 3.35 0 1.7 0 0 Z " fill="#7793A8" transform="translate(158,143)"/>
<path d="M0 0 C4.75 0.75 4.75 0.75 7 3 C5.35 3 3.7 3 2 3 C1.67 4.32 1.34 5.64 1 7 C1 6.34 1 5.68 1 5 C0.01 4.67 -0.98 4.34 -2 4 C-1.34 2.68 -0.68 1.36 0 0 Z " fill="#638AAA" transform="translate(304,41)"/>
<path d="M0 0 C-1.28813342 0.83878455 -2.58063256 1.67086783 -3.875 2.5 C-4.59429687 2.9640625 -5.31359375 3.428125 -6.0546875 3.90625 C-8 5 -8 5 -10 5 C-9.67 4.01 -9.34 3.02 -9 2 C-8.01 2 -7.02 2 -6 2 C-6 1.34 -6 0.68 -6 0 C-3.50907189 -1.24546405 -2.58919267 -0.7767578 0 0 Z " fill="#7F9EB5" transform="translate(225,347)"/>
<path d="M0 0 C0.33 0.66 0.66 1.32 1 2 C-1.97 1.67 -4.94 1.34 -8 1 C-8.33 1.66 -8.66 2.32 -9 3 C-9.66 2.34 -10.32 1.68 -11 1 C-6.9366946 -0.60642307 -4.21472177 -1.44504746 0 0 Z " fill="#A6B9C8" transform="translate(399,311)"/>
<path d="M0 0 C0.99 0.33 1.98 0.66 3 1 C3.185625 2.7015625 3.185625 2.7015625 3.375 4.4375 C3.684375 6.2009375 3.684375 6.2009375 4 8 C4.66 8.33 5.32 8.66 6 9 C5.34 9.66 4.68 10.32 4 11 C3.32880451 9.5437455 2.66318193 8.08492133 2 6.625 C1.62875 5.81289062 1.2575 5.00078125 0.875 4.1640625 C0 2 0 2 0 0 Z " fill="#7C9CB3" transform="translate(354,210)"/>
<path d="M0 0 C0.99 0.66 1.98 1.32 3 2 C2.01 2 1.02 2 0 2 C0.33 3.32 0.66 4.64 1 6 C-0.32 6.33 -1.64 6.66 -3 7 C-3 3 -3 3 -1.5 1.25 C-1.005 0.8375 -0.51 0.425 0 0 Z " fill="#567D9E" transform="translate(217,168)"/>
<path d="M0 0 C1.98 0 3.96 0 6 0 C6.33 1.32 6.66 2.64 7 4 C6.01 4.33 5.02 4.66 4 5 C4 4.34 4 3.68 4 3 C2.68 2.67 1.36 2.34 0 2 C0 1.34 0 0.68 0 0 Z " fill="#4F7EA6" transform="translate(192,154)"/>
<path d="M0 0 C2.97 0.495 2.97 0.495 6 1 C3.01353231 2.99097846 0.40312738 3.94124926 -3 5 C-3.33 4.01 -3.66 3.02 -4 2 C-2.68 2 -1.36 2 0 2 C0 1.34 0 0.68 0 0 Z " fill="#7091AA" transform="translate(353,133)"/>
<path d="M0 0 C0.99 0 1.98 0 3 0 C3.625 2.3125 3.625 2.3125 4 5 C3.01 6.485 3.01 6.485 2 8 C0.74335022 5.09399739 0 3.20395416 0 0 Z " fill="#5E86A7" transform="translate(154,84)"/>
<path d="M0 0 C0.66 0.33 1.32 0.66 2 1 C1.67 1.66 1.34 2.32 1 3 C1.99 3 2.98 3 4 3 C4 2.34 4 1.68 4 1 C4.66 1.33 5.32 1.66 6 2 C5.67 3.32 5.34 4.64 5 6 C2.69 5.34 0.38 4.68 -2 4 C-1.34 2.68 -0.68 1.36 0 0 Z " fill="#6087A5" transform="translate(183,66)"/>
<path d="M0 0 C-0.33 1.32 -0.66 2.64 -1 4 C-1.99 4 -2.98 4 -4 4 C-4.33 5.32 -4.66 6.64 -5 8 C-5.66 8 -6.32 8 -7 8 C-4.18918919 0 -4.18918919 0 0 0 Z " fill="#7E9AB3" transform="translate(192,58)"/>
<path d="M0 0 C0.99 0.33 1.98 0.66 3 1 C3 1.66 3 2.32 3 3 C3.66 3 4.32 3 5 3 C5.33 4.32 5.66 5.64 6 7 C5.01 7.495 5.01 7.495 4 8 C0 2.25 0 2.25 0 0 Z " fill="#7A9BB4" transform="translate(261,458)"/>
<path d="M0 0 C2.475 0.99 2.475 0.99 5 2 C3.35 3.65 1.7 5.3 0 7 C-0.38133299 5.0085944 -0.71325582 3.00720923 -1 1 C-0.67 0.67 -0.34 0.34 0 0 Z " fill="#6E92AC" transform="translate(229,336)"/>
<path d="M0 0 C0.99 0.33 1.98 0.66 3 1 C2.34 1 1.68 1 1 1 C1 1.66 1 2.32 1 3 C2.65 3 4.3 3 6 3 C5.360625 3.12375 4.72125 3.2475 4.0625 3.375 C3.381875 3.58125 2.70125 3.7875 2 4 C1.67 4.66 1.34 5.32 1 6 C0.01 5.67 -0.98 5.34 -2 5 C-1.34 3.35 -0.68 1.7 0 0 Z " fill="#33648E" transform="translate(445,318)"/>
<path d="M0 0 C1.32 0.33 2.64 0.66 4 1 C2.35 2.65 0.7 4.3 -1 6 C-1.33 5.34 -1.66 4.68 -2 4 C-1.0625 1.875 -1.0625 1.875 0 0 Z " fill="#668AA8" transform="translate(231,270)"/>
<path d="M0 0 C1.32 0.33 2.64 0.66 4 1 C3.6875 2.875 3.6875 2.875 3 5 C2.01 5.66 1.02 6.32 0 7 C0 4.69 0 2.38 0 0 Z " fill="#96AABB" transform="translate(180,44)"/>
<path d="M0 0 C-3.44450737 2.29633824 -5.93812283 2.54016485 -10 3 C-10 2.34 -10 1.68 -10 1 C-6.52674819 -0.1577506 -3.63932552 -0.06866652 0 0 Z " fill="#718BA0" transform="translate(235,35)"/>
<path d="M0 0 C3.125 0.375 3.125 0.375 6 1 C6 1.66 6 2.32 6 3 C3.6875 3.625 3.6875 3.625 1 4 C0.01 3.34 -0.98 2.68 -2 2 C-1.34 1.34 -0.68 0.68 0 0 Z " fill="#306795" transform="translate(386,329)"/>
<path d="M0 0 C1.32 0.66 2.64 1.32 4 2 C2.625 4 2.625 4 1 6 C0.34 6 -0.32 6 -1 6 C-1.33 5.01 -1.66 4.02 -2 3 C-1.34 2.01 -0.68 1.02 0 0 Z " fill="#7095B2" transform="translate(151,307)"/>
<path d="M0 0 C1.32 1.65 2.64 3.3 4 5 C3.34 5.66 2.68 6.32 2 7 C0.35 5.02 -1.3 3.04 -3 1 C-2.01 0.67 -1.02 0.34 0 0 Z " fill="#6B8BAC" transform="translate(152,276)"/>
<path d="M0 0 C2.15377564 2.62198774 3.40072174 4.64404172 4 8 C2.35 7.67 0.7 7.34 -1 7 C-0.34 6.67 0.32 6.34 1 6 C0.67 4.02 0.34 2.04 0 0 Z " fill="#6689A5" transform="translate(349,231)"/>
<path d="M0 0 C0.66 0.33 1.32 0.66 2 1 C1.34 4.3 0.68 7.6 0 11 C-0.33 11 -0.66 11 -1 11 C-1.0270043 9.54176788 -1.04639787 8.08339325 -1.0625 6.625 C-1.07410156 5.81289062 -1.08570313 5.00078125 -1.09765625 4.1640625 C-1 2 -1 2 0 0 Z " fill="#6485A2" transform="translate(163,111)"/>
<path d="M0 0 C0.66 0 1.32 0 2 0 C2 0.66 2 1.32 2 2 C3.32 2.66 4.64 3.32 6 4 C5.67 5.32 5.34 6.64 5 8 C4.16382818 6.8562364 3.33113541 5.70992861 2.5 4.5625 C2.0359375 3.92441406 1.571875 3.28632812 1.09375 2.62890625 C0 1 0 1 0 0 Z " fill="#849FB4" transform="translate(382,87)"/>
<path d="M0 0 C2.5 2.3125 2.5 2.3125 5 5 C5 5.99 5 6.98 5 8 C3.0625 7.375 3.0625 7.375 1 6 C0.25 2.875 0.25 2.875 0 0 Z " fill="#7C9CB1" transform="translate(363,83)"/>
<path d="M0 0 C2.97 0.495 2.97 0.495 6 1 C6 2.98 6 4.96 6 7 C5.34 6.67 4.68 6.34 4 6 C4 5.34 4 4.68 4 4 C3.34 4 2.68 4 2 4 C2 3.34 2 2.68 2 2 C1.34 2 0.68 2 0 2 C0 1.34 0 0.68 0 0 Z " fill="#7D9BB2" transform="translate(367,68)"/>
<path d="M0 0 C1.32 0.33 2.64 0.66 4 1 C4 3.64 4 6.28 4 9 C2.00902154 6.01353231 1.05875074 3.40312738 0 0 Z " fill="#88A2B9" transform="translate(377,255)"/>
<path d="M0 0 C0.66 0.33 1.32 0.66 2 1 C1.01 2.32 0.02 3.64 -1 5 C-2.65 4.67 -4.3 4.34 -6 4 C-3.94766315 1.7522025 -2.99332739 0.9977758 0 0 Z " fill="#7E9CB2" transform="translate(215,40)"/>
<path d="M0 0 C0 0.66 0 1.32 0 2 C-2.31 2.66 -4.62 3.32 -7 4 C-7.66 3.34 -8.32 2.68 -9 2 C-3.375 0 -3.375 0 0 0 Z " fill="#7D9FB8" transform="translate(82,38)"/>
</svg>
