<svg xmlns="http://www.w3.org/2000/svg" viewBox="0 0 24 24" fill="white" class="w-6 h-6">
  <path d="M12 0C5.37 0 0 5.37 0 12c0 5.3 3.44 9.8 8.21 11.38.6.11.82-.26.82-.58 
  0-.29-.01-1.05-.02-2.06-3.34.73-4.04-1.61-4.04-1.61-.55-1.38-1.34-1.75-1.34-1.75
  -1.1-.75.08-.74.08-.74 1.21.09 1.84 1.25 1.84 1.25 1.08 1.84 2.83 1.31 
  3.52 1 .11-.78.42-1.31.76-1.61-2.67-.3-5.47-1.34-5.47-5.96 
  0-1.32.47-2.39 1.24-3.23-.12-.3-.54-1.52.12-3.18 
  0 0 1.01-.32 3.3 1.23a11.5 11.5 0 013-.4c1.02.01 2.04.14 3 .4 
  2.28-1.55 3.29-1.23 3.29-1.23.66 1.66.24 2.88.12 3.18 
  .77.84 1.24 1.91 1.24 3.23 
  0 4.63-2.8 5.66-5.48 5.96.43.37.82 1.1.82 2.22 
  0 1.6-.01 2.89-.01 3.28 
  0 .32.21.7.82.58C20.56 21.8 24 17.3 24 12 
  24 5.37 18.63 0 12 0z"></path>
</svg>